<svg width="82" height="50" viewBox="0 0 82 50" fill="none" xmlns="http://www.w3.org/2000/svg">
<path d="M11.6807 21.7527L11.7988 21.6437H12.0986L12.3893 21.4983L12.7618 21.3984L13.0434 21.2167L13.0343 20.8987L12.9344 20.7988L12.9435 20.6353L12.7981 20.4808L12.6709 20.4627L12.5528 20.3718L12.5801 20.1447" stroke="#CFCDC7" stroke-width="0.0520918" stroke-linecap="round" stroke-linejoin="round"/>
<path d="M13.0615 21.2167L13.4885 21.2349L13.7701 21.4438L14.1699 21.0986L14.2244 20.9078L14.3879 20.7625H14.6968" stroke="#CFCDC7" stroke-width="0.0520918" stroke-linecap="round" stroke-linejoin="round"/>
<path d="M2.77525 7.15588L2.55329 7.41363L2.50879 8.34815L2.9538 8.63741L4.31107 8.74866L4.88959 8.48166L5.29009 8.85991L5.6906 8.83766L5.86861 9.26042L6.46937 9.23817L7.29263 8.34815L8.2939 8.74866L8.80566 8.72641L9.16167 8.48166L9.71793 8.30365L10.8527 7.34688L11.8762 7.50264L12.4102 7.90314L12.744 7.9254L12.7662 8.1924L13.1584 8.79485L13.5228 9.66093L14.0123 10.0614L14.791 10.3729L14.8133 10.5954L15.8146 10.2839L16.2596 10.3952L16.8158 10.8625L16.9716 10.818L17.2831 10.0614L17.2608 9.41617L17.8393 8.83766L18.0173 8.81541L18.3066 9.12692L19.3746 9.83893L20.8432 10.4174L21.0879 10.818L21.3327 10.8625L21.7109 11.9972L21.9112 12.3755H22.2894L22.5119 12.954L22.7567 12.7092H23.0237L23.0682 12.3532H23.3575L23.9137 12.4867L23.936 12.2642L24.292 12.1085L24.623 12.2319L25.1597 12.7092L25.093 12.9095L24.6925 12.9762L24.9372 13.6883L24.7815 13.7328L25.2042 14.2L25.0485 14.467L25.093 14.8453H25.2265L25.2932 15.6908L25.2265 16.2693L25.6047 16.4028L25.4712 16.6031L25.538 17.1816L26.517 17.6266L26.784 17.3596L26.9843 17.5376L27.1845 17.4708L27.8298 17.8491C27.8298 17.8491 27.7853 17.4041 27.8965 17.4041C28.0078 17.4041 28.4306 17.4708 28.4306 17.4708L28.9646 18.0493L29.3206 18.0716L29.7433 18.6724L30.1216 18.7614L30.2328 19.3176L30.5221 19.6959L30.5443 19.8739L31.1006 20.1854L32.2799 20.4079V20.6749L32.6581 21.0087L32.5469 21.3869L31.8794 22.4994L31.7904 22.8777L31.9461 22.9444L31.9239 23.6565L32.0129 23.9457L31.8794 24.591L31.4789 25.036L31.3535 25.8674" stroke="#CFCDC7" stroke-width="0.0520918" stroke-linecap="round" stroke-linejoin="round"/>
<path d="M65.1068 6.78034L64.258 7.20842V7.51484L63.9856 7.71912L64.1558 8.05959L64.7346 8.36601L65.0751 8.84267L64.5303 9.1491L64.3601 9.6598L64.0537 10.0684L64.4622 10.545L64.4963 11.1238L64.6665 11.3962L64.5984 11.7026L64.8368 11.8048L65.2113 11.5664L65.3134 11.975L64.6665 12.2474L64.258 12.724L63.5089 13.1326L63.4408 13.4731L63.6111 13.6773L63.1685 14.869L63.0323 15.5159L62.862 15.584L62.9982 15.9925L62.6237 16.0947L62.7258 16.5032L62.2151 16.6735V17.6268L62.0109 17.8311L61.6023 17.9673L61.4321 19.0227L61.9428 20.1463L61.8406 20.3505L62.0449 20.6229L62.1811 21.2017L62.7258 21.5762L62.6578 22.0869L62.4875 22.6317L62.6237 23.3467L62.147 24.6745L61.8406 24.7766L61.8066 25.049L61.2959 25.015L60.8192 25.6959L60.1723 25.3214L59.5595 26.2407L59.3211 27.0578L59.0147 27.4664L58.9466 28.0452L58.7083 28.4197L59.0147 29.1006L58.0614 29.407L57.6188 29.1687L57.4826 28.8963L57.1762 28.5559L57.3124 28.1813L57.1081 27.4323L56.8357 27.194L57.0741 26.8535V26.2747L56.9719 25.9683L57.0741 25.5257L56.8698 24.5383L56.6995 24.0276L56.4272 23.585L57.3124 22.4955L57.3464 21.3379L57.6529 20.5889L57.6188 20.2484L57.5167 20.1463L57.7209 19.8058L57.6869 19.4313L57.04 19.2951L56.9719 19.1589L57.2783 18.8525V17.9673L57.1421 17.082L56.8017 16.9799L56.4272 17.4906L56.291 17.0139L55.8143 16.9799L55.4398 17.3885L54.9631 17.1842L54.9291 16.8778L54.861 16.1968L54.4865 16.0266L53.5672 16.6394L53.1246 17.2863L53.0225 17.2523L53.0565 16.5373L52.7501 16.1287L52.3075 16.0947L52.0691 15.4478L51.8649 14.8009L51.967 13.8476L52.2394 13.2347V12.724L51.5584 11.7367L51.0818 11.4643L51.4563 10.9195L51.7287 10.0343L51.7968 9.18314L51.967 8.63839L51.7287 8.09364L51.8989 7.78722L51.8308 7.54889L51.967 7.10628L52.5799 7.58293L52.8182 7.20842L53.2267 6.73176L53.6694 6.66367L54.0779 6.42534L54.2141 6.62962V6.93604L54.6567 7.10628L54.9291 7.00413L55.4398 7.31056H55.8143L55.61 6.86795L56.1207 6.62962L56.4953 6.01677L56.3931 5.60821L56.8698 5.36988L57.4145 6.08487L57.789 5.81249V5.30179L58.3678 5.7444L58.6743 5.84654L59.219 5.43798L59.4914 5.47202L59.219 5.91463L59.6957 5.94868L59.4233 6.22106L59.5254 6.66367L59.9 6.93604L60.1723 6.56153L60.4447 6.8339L60.3426 7.10628L60.8873 7.44675L61.5002 7.51484L61.8406 6.97009L62.4875 7.14032L62.862 7.4127L62.5897 7.82126L62.6918 8.09364L63.6451 7.78722L63.9833 7.72142" stroke="#CFCDC7" stroke-width="0.0520918" stroke-linecap="round" stroke-linejoin="round"/>
<path d="M32.2817 20.4175L32.2949 20.1545L32.1343 20.0856L32.249 19.3516L32.3866 18.9157L32.6848 18.7552L32.8913 19.0075L33.4189 19.0304L33.8318 17.7917L33.8088 17.5394L34.107 17.1265L33.9924 16.6218L34.3364 15.8419L34.6347 15.5207L35.1393 15.3602L35.621 15.0849L35.4375 14.5114H35.8046L36.2175 15.0849L36.2404 15.1537L36.6074 15.1996L37.4562 15.9566L37.8232 15.6813L38.0985 15.8189L38.282 15.3602L38.5802 15.2455L39.2684 15.5896L39.4748 15.796L39.8648 15.6813L40.53 15.9107L42.1128 16.0483L42.5716 15.6354L43.0763 15.6584L42.9845 15.2225L43.2139 15.039L43.7874 15.3372L44.0168 15.7042H44.4756L44.6362 15.1996L44.682 14.6032L45.2555 13.4333L45.829 13.1351L45.9896 12.768L46.4713 12.6992L46.9071 12.4239L47.1824 12.3781L47.343 11.9652L47.8706 11.644L48.1688 11.7816H49.2011L49.3387 11.9422L50.0269 11.9193L50.6462 11.6669H51.0591L51.0865 11.457" stroke="#CFCDC7" stroke-width="0.0520918" stroke-linecap="round" stroke-linejoin="round"/>
<path d="M48.1661 11.7807L48.4669 12.2404L48.5128 13.2039L48.3522 13.4103L48.3981 13.6626L48.8569 14.0067L48.8798 14.3738L49.201 14.7408L49.4304 15.5207L49.6597 15.8648L49.6139 16.5989L49.2698 17.1953L49.3157 18.4111L48.9716 18.824L49.0863 19.4892L49.4304 20.0168L49.6368 20.1544L49.8433 21.3243L49.7744 22.1731L50.1644 23.6641L50.0727 24.1917L49.7286 25.224L49.3845 25.8204L49.3157 27.0362L48.9257 27.0821L48.8569 26.8986L49.0404 26.1875L49.0633 25.7516L48.9716 25.3387L49.2698 24.5588L48.9486 24.3294L48.3752 24.1917L47.8705 24.7193L47.687 25.1781L47.5493 25.4763V25.6369L47.8476 25.6599L47.8246 25.8663L47.7558 26.0269L47.664 26.7839L47.8246 27.0133L48.0999 27.1509V27.7932L47.7099 28.1144L47.6182 28.5502L47.3888 28.7796L47.2511 29.4448L46.907 29.7889L46.7694 30.4542C46.7694 30.4542 46.7923 30.7982 46.7694 30.89C46.7465 30.9818 46.1959 32.4728 46.1959 32.4728L45.9665 32.8169L45.9436 33.528L46.4024 33.9639L46.3565 34.1703L45.9895 34.2162L45.8977 34.6062H45.5536L45.3472 34.8355V35.0879L45.0031 34.9502L44.9343 34.5603L44.0626 34.7667L43.8332 35.1567L43.1679 35.5925L43.1909 35.8449L42.9386 36.0743L42.7832 36.4965" stroke="#CFCDC7" stroke-width="0.0520918" stroke-linecap="round" stroke-linejoin="round"/>
<path d="M48.5522 42.6819L48.2606 41.8779L48.2836 41.5797L48.2147 41.3044V40.9603L47.756 40.8915V40.2951L47.8936 39.974L47.6871 39.7446L47.6642 39.5381H47.5266L47.4348 39.2858L47.8936 38.827L47.6183 38.4141L47.5036 37.8865L47.8248 37.5653L47.9165 37.3359L47.9395 35.9825L47.8018 35.8678V35.7073L47.9395 35.6384L47.8018 35.1108L48.4671 34.8814L48.9259 34.8356V34.3768L49.27 34.2162L49.7287 34.1474L49.9122 33.918L50.761 33.8721V33.6427L51.2427 33.5739L51.5639 33.9639L51.3804 34.2162L51.7703 34.308L51.908 34.8356L52.6879 35.6384L52.7567 36.1431L52.9173 36.3954L53.1696 36.4184L53.2614 36.6936L53.5596 36.7625L53.5825 37.0377L53.7928 37.2528" stroke="#CFCDC7" stroke-width="0.0520918" stroke-linecap="round" stroke-linejoin="round"/>
<path d="M51.7771 34.31L51.885 33.5739L52.2061 33.0463L52.1832 31.9452L52.0226 31.5323L51.7015 31.2341L51.128 30.3395L51.2197 29.766L51.0362 29.3072L51.2197 28.5731L51.518 28.4584L51.495 27.9997L51.7932 27.7473L51.6556 27.2427L51.8391 26.8298L51.862 26.3022L51.7244 26.1186L51.7703 25.591L51.105 24.6047L50.9904 23.9853L51.1968 23.2054L51.0362 22.586L50.8986 22.2878L50.8757 21.3473L50.6921 21.0032L50.9445 20.4527L51.1509 20.315L51.3115 19.6498L51.2197 19.4433L51.3803 19.2139L51.3115 18.801L51.6097 18.2505L51.7473 17.9293L52.1144 17.7458L52.2749 17.3788L52.1602 17.1494L51.7703 17.0347L52.1144 16.4842L52.304 16.0912" stroke="#CFCDC7" stroke-width="0.0520918" stroke-linecap="round" stroke-linejoin="round"/>
<path d="M59.0129 29.1L59.1992 29.3906L59.3681 30.0454L59.347 30.5734L59.1569 30.848L59.4315 31.0381L59.4737 31.6295L59.8751 32.0097L59.8449 32.526" stroke="#CFCDC7" stroke-width="0.0520918" stroke-linecap="round" stroke-linejoin="round"/>
<path d="M61.801 25.0446L61.8606 25.314L61.2903 25.9687L61.0791 26.6447L61.2058 26.6869L61.8817 26.3912L62.1141 26.1588L62.4943 26.0532L62.5365 26.4546L62.3464 26.5602L62.2831 27.0037L62.452 27.7008L62.5999 27.8064L62.5788 28.3556L62.1986 28.5668L61.9874 28.6301V28.778L62.1352 29.0526L62.0718 29.3272L62.3253 29.7074L62.452 29.3272L62.9801 29.3061L63.1491 29.0948L63.8672 29.0737L64.3742 28.609L64.6065 28.3344L64.9022 28.3133L65.2824 28.0598L65.5993 28.0176L66.0006 28.3556L66.064 28.6724L66.3808 28.947L66.4442 29.3483L66.3174 29.475L66.3385 30.1721L66.6765 30.5734L66.624 31.0216" stroke="#CFCDC7" stroke-width="0.0520918" stroke-linecap="round" stroke-linejoin="round"/>
<path fill-rule="evenodd" clip-rule="evenodd" d="M45.2952 11.525L45.0436 11.354L44.5172 11.276L44.0755 11.3524L43.5836 11.3072L43.0857 11.6806L43.2724 11.8673V12.1163L43.7392 12.2719L44.1127 12.1163L44.6106 12.2096L44.7973 12.0852L44.9218 11.774L45.1934 11.7079L45.2952 11.525Z" stroke="#CFCDC7" stroke-width="0.0520918" stroke-linecap="round" stroke-linejoin="round"/>
<path fill-rule="evenodd" clip-rule="evenodd" d="M42.736 11.9147L42.2616 12.3192L42.1831 12.8009L42.3861 13.0431L42.6504 13.0115L42.9304 12.4514L42.8989 12.1163L42.736 11.9147Z" stroke="#CFCDC7" stroke-width="0.0520918" stroke-linecap="round" stroke-linejoin="round"/>
<path fill-rule="evenodd" clip-rule="evenodd" d="M47.1001 12.8632L48.0341 13.0354L48.0648 13.4233L47.8469 13.9212L47.4735 14.2324L46.9133 14.0457L47.0067 13.5167L46.9981 13.159L47.1001 12.8632Z" stroke="#CFCDC7" stroke-width="0.0520918" stroke-linecap="round" stroke-linejoin="round"/>
<path fill-rule="evenodd" clip-rule="evenodd" d="M62.6914 10.4047L62.3802 10.4358L62.2869 10.6847L62.3802 10.9959L62.069 11.5561L61.7578 11.9296L61.4777 12.5208L61.1976 12.7076L60.9176 13.2055H60.6997L60.4819 13.5789L60.2952 13.6723L60.3574 13.7656L60.8242 14.0457L61.2288 14.4192L62.2557 13.9212L62.3802 13.4233L62.7848 13.1121L62.7225 12.9254L63.1271 12.2096L63.2205 11.6495L63.096 11.3694V11.0271L62.6914 10.4047Z" stroke="#CFCDC7" stroke-width="0.0520918" stroke-linecap="round" stroke-linejoin="round"/>
<path fill-rule="evenodd" clip-rule="evenodd" d="M48.2651 41.8684L48.2815 42.5062L48.4123 42.5879L48.4941 42.4408L48.5104 42.2936L48.2651 41.8684Z" stroke="#CFCDC7" stroke-width="0.0520918" stroke-linecap="round" stroke-linejoin="round"/>
<path fill-rule="evenodd" clip-rule="evenodd" d="M48.6623 43.2685L48.1342 43.2748L48.1179 43.5364L48.0034 43.6836L48.0197 43.8634L47.9053 44.0597L47.9543 44.4031L48.1669 44.5339L48.216 44.4194L48.4776 44.6157L48.6902 45.0245V45.2861L49.0009 45.5968H49.2953L49.5569 45.8585H49.7858L49.7531 45.6295L49.2953 45.188L48.949 44.8369L48.6888 44.2824L48.6262 43.7326L48.6623 43.2685Z" stroke="#CFCDC7" stroke-width="0.0520918" stroke-linecap="round" stroke-linejoin="round"/>
<path fill-rule="evenodd" clip-rule="evenodd" d="M49.3771 42.2118L49.328 42.4898L49.0991 42.4081L48.8375 42.5552L48.8211 42.7842L48.5595 42.6861L48.3796 42.915L48.167 42.9804V43.1112L48.6691 43.1001L48.7836 42.9511L48.9917 42.7365L49.1318 42.6697L49.5243 42.5879L49.7369 42.4735V42.3263L49.3771 42.2118Z" stroke="#CFCDC7" stroke-width="0.0520918" stroke-linecap="round" stroke-linejoin="round"/>
<path d="M8.26904 11.9692L8.56318 12.1816L8.71024 12.1979L8.79195 11.9528L8.66122 11.528L8.71024 11.3972L8.85731 11.7241L8.97169 12.0836L8.80829 12.345L8.53049 12.4267L8.26904 11.9692Z" stroke="#CFCDC7" stroke-width="0.0520918" stroke-linecap="round" stroke-linejoin="round"/>
<path d="M64.7609 38.0337L65.8626 38.2541L66.083 38.4524L66.127 38.6727L65.9287 39.1134L65.3118 39.51L65.0033 39.5981L64.6728 40.0388H64.122H63.7914L63.6152 39.8846L63.4609 39.9286L63.3067 39.6642L63.3508 39.532L63.1965 39.3337L63.4609 39.2456L63.6152 39.3117L63.7694 39.0914L63.9457 39.2456L64.1881 39.0914H64.3643L64.4965 38.9812L64.5406 38.3202L64.7609 38.0337Z" fill="#CFCDC7" stroke="#CFCDC7" stroke-width="0.0520918" stroke-linecap="round" stroke-linejoin="round"/>
<path d="M65.5983 39.6202L65.2678 39.7303L65.2017 39.8405L64.6949 40.127L64.5847 40.3253L64.1 40.4354L63.8796 40.8761L63.9898 41.0744L64.3644 41.1846L64.3864 41.0083L64.5627 40.9643L64.6288 40.788L64.783 40.7659L65.4 40.2151L65.5983 39.6202Z" fill="#CFCDC7" stroke="#CFCDC7" stroke-width="0.0520918" stroke-linecap="round" stroke-linejoin="round"/>
<path d="M67.2067 38.6727L66.9864 39.3558H66.766L66.4796 39.532L65.8186 40.3473L65.8626 40.5015H65.7304L65.5321 40.7439L65.5542 40.832H65.422L65.0914 41.2066L65.2236 41.427L64.6948 41.6914L64.5186 41.8676L64.4965 42.088L64.7609 42.2642L64.4304 42.5066L64.5406 42.5948L64.8711 42.5507L64.827 42.6609L65.0253 42.7049L64.7389 43.2337L64.783 43.4981L65.7084 43.388L65.9948 43.6083L66.0609 43.8727L66.3253 43.7626L66.6999 44.2032L66.9203 44.2693L66.8542 44.71L67.383 44.9524L67.6033 44.8422L67.9338 45.2388H68.4626L69.0796 45.6575L69.344 45.988L69.2779 46.2304L69.5203 46.2744L69.5423 46.7592L70.005 46.5829L70.2915 46.671L70.7101 46.7371L71.0406 46.9795H71.4372L71.6355 47.1999L71.8999 47.2219L72.1644 47.5965L72.5389 47.5083L72.7813 47.5965L73.0237 47.8829L73.4203 47.927L73.5305 47.8168L73.4644 47.7287L73.5745 47.7507L73.7067 47.6846L73.6847 47.4863L73.905 47.4422L74.0593 47.2219L74.4559 47.1558L74.4118 46.9795L74.4779 46.9134L74.3898 46.5609L74.5 46.3185L74.4779 46.0761L74.6542 46.0321L74.7203 45.7016H74.9627L75.0949 45.5253V45.3931L75.3373 45.1066L75.6457 45.2609L75.8661 45.327L75.9542 45.4812L76.0644 45.2829L75.7559 44.9524L75.8661 44.688L75.5576 44.2253L75.6457 44.049L75.5356 43.8507V43.7185L75.0949 43.1015L74.8745 43.0354L74.8084 42.749L74.1254 42.1541L73.861 42.0219L73.7508 41.8456L73.7288 41.427L73.4423 41.2947L73.3983 41.1185L73.2 40.8761L73.0898 40.832L72.9796 40.0388L72.6271 39.4439L72.3406 39.0032L71.8118 38.6727L70.9745 38.6507L70.4677 38.871L69.8949 38.9591L69.1457 38.9812L68.3745 38.8049L67.7576 38.6066L67.2067 38.6727Z" fill="#CFCDC7" stroke="#CFCDC7" stroke-width="0.520918" stroke-linecap="round" stroke-linejoin="round"/>
<path d="M5.47534 2.2694L6.2312 2.09497L7.07427 2.15311L7.08881 2.29847L6.79809 2.57465L6.37656 2.64733L6.0277 2.45836L5.47534 2.40022V2.2694Z" fill="#CFCDC7" stroke="#CFCDC7" stroke-width="0.0520918" stroke-linecap="round" stroke-linejoin="round"/>
<path d="M50.8487 41.9992L51.1594 41.8684L51.3229 41.7212L51.5682 41.7539L51.8626 42.0156L51.9116 42.2445L51.7808 42.2936L51.6663 42.2118L51.6009 42.1137L51.4864 42.2118L51.5846 42.3099H51.6827L51.699 42.4244H51.5355L51.5519 42.5225L51.3556 42.7351L51.4374 42.7514L51.6009 42.5879L51.7317 42.6206L51.8626 42.5062L51.8298 42.3753L51.977 42.1955L52.1569 42.2118V42.3099L52.0424 42.4734L52.0588 42.637L51.8298 42.7024L51.7971 42.915L51.5028 43.1766L51.2575 43.1603L51.1267 42.9804L50.9959 42.8823H50.816L50.7996 43.0458L50.9632 43.1766H51.1267L51.2739 43.3238L51.1921 43.471L51.0286 43.4873L50.9632 43.6999L50.865 43.7326L50.538 43.5691H50.4562L50.1782 43.4219L50.2763 42.8986L50.3908 42.5552L50.4889 42.3263L50.6688 42.2445L50.8487 41.9992Z" fill="#CFCDC7" stroke="#CFCDC7" stroke-width="0.0520918" stroke-linecap="round" stroke-linejoin="round"/>
<path d="M1.26573 2.5383L1.70862 2.28733L2.09245 2.30209L2.24008 2.22828L2.49105 2.30209L4.21831 2.47925L4.48404 2.22828L4.77929 2.28733L5.05979 2.55306V2.74498H5.23694L6.77228 4.85607L6.72799 5.09227L6.31463 5.47611L6.49179 5.5204L6.37369 5.80089L6.5656 6.00757L6.78705 6.05186L7.03801 6.00757L7.79092 5.34324L7.82045 5.16609L8.14523 5.07751L8.45525 4.70844L8.80956 4.59034L9.00148 4.70844V5.07751L9.25245 5.31372L9.65104 5.06275L9.56247 4.94465H9.16387L9.14911 4.63463L9.40007 4.47223L9.63628 4.38366L9.85772 4.32461L9.93154 4.05887L10.6844 3.83743L11.024 3.89648L11.275 4.11792L11.1716 4.47223L11.1273 4.90036L11.2454 5.07751L11.5407 4.87083L11.6293 5.01846L11.8359 5.03322L11.9098 4.79702L12.3526 4.64939L12.3379 4.30984H12.4855L12.6922 3.9703L12.8103 4.28032L13.4746 4.39842L13.7256 4.59034L13.8142 4.84131L14.0799 5.01846L14.3013 4.85607L14.2866 4.6051L14.3899 4.50176L14.6261 4.87083L14.8623 5.09227L15.0543 5.38753L15.32 5.40229L15.4824 5.29895L15.571 5.41706L16.2058 5.60897L16.5748 5.43182L17.2834 5.37277L17.5935 5.49087L17.9182 5.78613L18.1249 5.84518L18.4202 6.12568L18.6564 6.08139L18.6859 5.85994L18.8483 5.7566L18.8778 5.81565L18.7893 5.99281L18.8631 6.1552L19.2174 6.2733L19.3798 6.24378L20.1032 6.47998L21.0037 7.04097L21.358 6.9524L22.1404 7.23289H22.3619L24.3696 7.80864L24.5911 8.00056L25.0044 8.03009L25.093 7.9858L25.1816 8.00056L25.2406 8.222L25.5654 8.44345L25.7869 8.38439L26.0231 8.08914L26.1412 8.13343L26.0674 8.31058L26.1855 8.45821L26.5102 8.5025L26.6136 8.31058H26.7022L27.1155 8.56155L27.8094 8.69442L28.7247 8.63536L29.7876 8.19248L30.2157 8.17771L30.6143 8.01532V7.91198L30.7619 7.82341L30.9686 7.91198L32.1349 7.69054L32.5778 7.86769L33.3307 7.77912L34.807 7.74959L35.6632 7.67578L36.0766 7.42481L36.5785 7.41005L36.8295 7.24765L37.0952 6.68666H37.7153L38.04 6.53904L38.232 6.14044L38.5863 5.93376L39.0439 5.54992L39.472 5.43182L39.6935 5.22514V5.0037L40.1807 4.67891L40.3283 4.32461L40.9188 3.66028L41.1993 3.54217L41.3026 3.36502L41.8784 2.89261L42.1736 2.80403L43.7533 1.56395L43.8714 1.37203L44.0338 1.41632L44.329 1.40156L44.7571 1.23916L46.4106 0.33863L48.1378 0.176239L49.3927 0.958671L49.6289 0.973433L51.2085 1.51966L51.9319 1.56395L52.9063 1.75587L53.4968 2.05112L53.9544 2.47925L54.3087 2.55306L54.9731 2.92213L55.7998 2.98118C55.7998 2.98118 56.1689 3.20263 56.2279 3.20263C56.287 3.20263 56.4641 3.20263 56.4641 3.20263L56.7889 3.40931L57.6747 3.32073L57.9109 3.37978L58.1471 3.8079L58.4128 3.95553L58.8409 4.38366L59.4905 4.44271L60.0515 4.61986L60.332 4.82654L60.8044 4.84131L61.5868 5.18085L62.325 5.59421L62.4135 5.80089L62.6498 5.88947L63.4912 6.00757L64.9675 6.5538L65.248 6.96716L65.4842 7.17384L66.0157 7.60196L66.8572 7.73483L67.2705 8.29582L67.7134 8.38439L67.8758 8.48773L68.3039 9.22588L70.0755 10.1117L71.4337 10.8646L71.7732 11.1746L71.8618 11.4551L72.9247 12.4589L73.3971 13.1233L73.6776 13.8319L73.9286 13.9648L74.3715 14.3929L74.5043 14.6734L75.2277 15.2787L75.2868 15.692L75.8478 16.6664L76.3054 16.8878L76.6892 17.3455L77.6341 17.4045L77.7965 17.626L78.0474 17.5374L78.446 17.9507L78.8151 18.0245L79.1546 18.2165L79.6566 18.7184L80.2471 18.9103L80.3504 19.4418L80.9409 20.0175L80.8819 20.4014L81 21.0952L80.8376 21.2133L80.8524 21.3757C80.8524 21.3757 80.9409 21.4938 80.9262 21.5529C80.9114 21.6119 80.6309 22.1729 80.5719 22.1877C80.5128 22.2024 80.2619 22.3353 80.2619 22.3353V22.6896L80.0404 22.7782L79.9814 23.103L79.6123 23.3392L79.4942 23.6344L79.2137 23.7968L78.4313 24.4021L77.8112 24.594L77.3683 24.9336L76.2021 25.3765L76.1578 25.8046L75.9363 26.1294L75.1096 26.7937L74.6963 27.9747L74.7996 28.1962L74.6667 28.2257L74.4305 28.0633L72.8657 28.8457L72.7771 28.6981L71.0941 28.0928L70.6217 28.1666L70.1345 27.8714L69.7802 27.8566L68.673 28.27L68.3482 28.6095L68.2892 29.0081L68.5106 29.141L68.673 29.6429L68.6878 29.9382L68.6287 29.9677L68.5254 29.761L68.3039 29.8496L68.4368 30.0563L68.3777 30.4254L66.621 31.0306H66.06L65.4842 31.2373L64.5394 32.2707L63.3731 32.5807L61.6311 32.6693L61.203 32.5512L59.9334 32.5069L59.4167 32.6398L58.7966 32.9498L58.5309 33.2008L58.2947 33.7322L57.778 33.9685L57.5861 34.1161L56.9808 34.4409L56.656 34.9723L55.5193 35.6367L55.4602 35.8286L54.4564 36.7882L53.3196 37.6001L52.9063 38.1906L52.8915 38.4268L53.1277 38.9731L53.0686 39.3126L53.2606 39.9179L53.1129 40.7003L52.8915 40.9661L52.36 41.217H52.1829L52.1681 41.1137L51.8729 41.0989L51.6219 41.3794L51.1052 41.6451L50.7361 41.6599L50.559 41.8814L50.7656 42.0437L50.6918 42.1471L50.4851 42.0142L50.2637 42.1028H49.9832L49.8503 42.6047L49.6141 42.6933L49.8946 42.7819V42.9295L49.7618 43.3429L49.4517 43.3281L49.5108 42.8409L49.3927 42.7819L49.3336 42.7671L49.0697 42.8615L48.8925 43.0691L48.8243 43.2463L48.8004 43.7205L48.8908 44.2877L49.1122 44.7306L49.5108 45.1292L49.8208 45.4244L49.9389 45.7197L49.9242 45.8378L50.2637 45.9116L50.1013 45.7345L49.9242 45.1587L50.1751 44.9816L50.0127 44.5977L50.0423 44.2286L50.1013 44.081L50.057 43.8891L50.1751 43.7415L50.4261 43.7562L50.5442 44.2582L50.559 45.0111L50.7656 45.8673L50.9428 45.9559L51.1938 46.5907L51.3709 46.5759L51.4004 46.694L51.3414 46.7826L51.5776 46.8564V47.0188L51.3266 46.9745L51.0757 47.1812L51.0166 47.506L50.6771 47.8308L50.4999 48.1408L50.1899 48.7756L49.3632 49.1004C49.3632 49.1004 49.0236 49.3661 48.9498 49.3809C48.876 49.3957 48.4331 49.4842 48.4331 49.4842L47.7245 49.7352L46.8978 49.8238L45.8791 49.7647L44.4767 49.7204L43.5171 49.6023L42.0113 49.0856L41.9522 48.7756L41.8193 48.5542L41.8636 48.067L42.1441 47.5946L42.6165 47.5798L42.8675 47.3584L43.0889 47.4027L43.4285 47.1812L43.8271 46.9303L43.9304 46.3988L44.0485 46.2807L44.1223 46.3102L44.3586 46.1183L44.8162 46.074L44.9048 45.8673L45.141 45.823L45.4658 45.4392H45.9382L46.3663 45.513L46.6616 45.5721L46.9125 45.3211L47.1045 44.7601L47.1192 44.1548L46.9125 43.8891L46.5139 43.5791H46.1153L46.0563 43.3724L46.4992 43.3429L46.6468 42.7966L46.7944 42.3095L47.134 41.8223L46.9716 41.0842L46.632 40.2427L46.1744 39.6226L45.6872 38.8845L45.1853 38.2792L44.3143 37.5558L43.7385 37.0834L42.8527 36.6848L42.6165 36.1534L42.336 35.9171L41.8046 35.0314L41.775 34.6033L41.5831 34.4704L41.4798 34.4852L40.9631 33.7765L39.7525 32.6988L38.4091 31.5621L37.5824 31.0306L36.9181 30.4401L36.5047 30.2777L36.3866 30.2482L36.3718 30.0268H36.2833L36.2537 29.7758L35.3237 28.8605L34.9989 28.6981L34.7627 28.329L34.2755 28.019H33.9507L33.9064 27.8419L33.6259 27.709L33.0207 27.0742L33.1092 26.9856L32.5335 26.5132L31.7363 25.9817L31.2344 25.8489C31.2344 25.8489 30.6881 25.3912 30.57 25.3469C30.4519 25.3026 29.33 24.7121 29.33 24.7121L28.9609 24.6974L26.9236 23.9445L26.1412 23.7673L25.5507 23.7378L25.2111 23.4868L25.093 23.472L25.0044 23.1325L24.7239 23.0587L24.3696 22.8668L24.2515 22.4977L23.971 22.3058L23.3215 22.1286C23.3215 22.1286 22.0371 21.8924 21.9633 21.8334C21.8895 21.7743 20.9742 21.5381 20.9742 21.5381L20.0293 21.361L19.4979 21.3462L17.6378 21.3905L16.2648 21.4938L14.8476 21.8334L13.8142 22.0401L12.766 21.9958L11.8212 21.7891L11.6145 21.7596L11.3045 21.7743L10.7583 21.6562L10.3892 21.42L10.3154 21.2576L9.90201 20.8885L9.96106 20.7409L9.93154 20.6966L10.0054 20.5342L9.26721 19.7518L8.80956 19.4861V19.3532L8.17476 18.6889L8.08618 18.2608L7.74663 17.9507L6.97896 17.6702L6.41797 17.1978L6.40321 16.873V16.5187L6.59513 16.2087L6.49179 15.7511L5.87175 15.2787L4.95645 14.3043L4.58738 14.0533L4.57262 13.9205L4.15925 13.64L4.04115 13.3004L3.95257 13.138V12.8723L3.52445 12.2227L3.28825 11.7503L2.90441 11.4994L2.69773 11.0565L2.26961 10.6431C2.26961 10.6431 2.00388 9.90497 1.9153 9.87544C1.82672 9.84592 1.5167 8.29582 1.5167 8.29582L1.41336 8.11866L1.44289 7.94151L1.14763 7.72007L1.10334 7.49862L1 7.3067L1.02953 6.99669L1.13287 6.80477L1.33955 6.45046L1.44289 6.46522V6.65714L1.6348 6.79001L1.85625 7.11479L1.84148 7.45433L1.64957 7.55767L1.6348 7.69054L1.73814 7.73483L1.90054 7.64625L2.22532 7.5872L2.69773 6.86382L2.80107 6.90811L2.77154 7.15908L3.02251 7.04097L3.30301 6.80477L2.93394 6.58332L2.78631 6.61285L2.72726 6.4357L2.34342 6.49475L1.87101 6.25854L1.81196 5.71232L1.9153 5.5204L1.90054 5.25467L1.76767 4.69368L1.45765 4.33937L1.05905 3.89648L1.10334 3.73409L1.13287 3.33549L1.20668 3.01071L1.17715 2.81879L1.26573 2.5383Z" fill="#CFCDC7" stroke="white" stroke-width="0.0520918"/>
<path d="M47.2053 33.7234L43.1161 36.7708L42.8296 36.6926L42.5692 36.1717L42.3868 35.9373L42.0743 35.4945L41.7617 34.7652L41.6576 34.5048H41.4752L40.9283 33.7234L38.8186 31.9002L37.4902 30.9886L36.9172 30.4156L36.3702 30.2593V30.0509H36.3181L36.24 29.7384L35.3544 28.8789L35.0158 28.7226L34.7554 28.3579L34.2866 28.0193H33.974L33.8959 27.837L33.5833 27.6807L32.9843 27.1077L33.0624 26.9515L31.682 25.9617L31.2392 25.8575L30.6141 25.3887L29.3378 24.6855H28.9211L26.4207 23.7999L25.5872 23.7218L25.0924 23.4874L25.0142 23.1227L24.3891 22.8362L24.0245 22.3413L22.0971 21.8986L21.5762 21.6641L19.6748 21.3255L20.1436 20.9609L22.7222 20.1274L25.9519 19.7107L27.2802 21.1693L29.9629 21.8986L33.9219 23.3571L37.8028 26.7431L40.9283 28.5142L47.2053 33.7234Z" fill="#4B4D4C" stroke="#4B4D4C" stroke-width="0.0520918"/>
</svg>
