<svg width="82" height="50" viewBox="0 0 82 50" fill="none" xmlns="http://www.w3.org/2000/svg">
<path d="M1.26573 2.5383L1.70862 2.28733L2.09245 2.30209L2.24008 2.22828L2.49105 2.30209L4.21831 2.47925L4.48404 2.22828L4.77929 2.28733L5.05979 2.55306V2.74498H5.23694L6.77228 4.85607L6.72799 5.09227L6.31463 5.47611L6.49179 5.5204L6.37369 5.80089L6.5656 6.00757L6.78705 6.05186L7.03801 6.00757L7.79092 5.34324L7.82045 5.16609L8.14523 5.07751L8.45525 4.70844L8.80956 4.59034L9.00148 4.70844V5.07751L9.25245 5.31372L9.65104 5.06275L9.56247 4.94465H9.16387L9.14911 4.63463L9.40007 4.47223L9.63628 4.38366L9.85772 4.32461L9.93154 4.05887L10.6844 3.83743L11.024 3.89648L11.275 4.11792L11.1716 4.47223L11.1273 4.90036L11.2454 5.07751L11.5407 4.87083L11.6293 5.01846L11.8359 5.03322L11.9098 4.79702L12.3526 4.64939L12.3379 4.30984H12.4855L12.6922 3.9703L12.8103 4.28032L13.4746 4.39842L13.7256 4.59034L13.8142 4.84131L14.0799 5.01846L14.3013 4.85607L14.2866 4.6051L14.3899 4.50176L14.6261 4.87083L14.8623 5.09227L15.0543 5.38753L15.32 5.40229L15.4824 5.29895L15.571 5.41706L16.2058 5.60897L16.5748 5.43182L17.2834 5.37277L17.5935 5.49087L17.9182 5.78613L18.1249 5.84518L18.4202 6.12568L18.6564 6.08139L18.6859 5.85994L18.8483 5.7566L18.8778 5.81565L18.7893 5.99281L18.8631 6.1552L19.2174 6.2733L19.3798 6.24378L20.1032 6.47998L21.0037 7.04097L21.358 6.9524L22.1404 7.23289H22.3619L24.3696 7.80864L24.5911 8.00056L25.0044 8.03009L25.093 7.9858L25.1816 8.00056L25.2406 8.222L25.5654 8.44345L25.7869 8.38439L26.0231 8.08914L26.1412 8.13343L26.0674 8.31058L26.1855 8.45821L26.5102 8.5025L26.6136 8.31058H26.7022L27.1155 8.56155L27.8094 8.69442L28.7247 8.63536L29.7876 8.19248L30.2157 8.17771L30.6143 8.01532V7.91198L30.7619 7.82341L30.9686 7.91198L32.1349 7.69054L32.5778 7.86769L33.3307 7.77912L34.807 7.74959L35.6632 7.67578L36.0766 7.42481L36.5785 7.41005L36.8295 7.24765L37.0952 6.68666H37.7153L38.04 6.53904L38.232 6.14044L38.5863 5.93376L39.0439 5.54992L39.472 5.43182L39.6935 5.22514V5.0037L40.1807 4.67891L40.3283 4.32461L40.9188 3.66028L41.1993 3.54217L41.3026 3.36502L41.8784 2.89261L42.1736 2.80403L43.7533 1.56395L43.8714 1.37203L44.0338 1.41632L44.329 1.40156L44.7571 1.23916L46.4106 0.33863L48.1378 0.176239L49.3927 0.958671L49.6289 0.973433L51.2085 1.51966L51.9319 1.56395L52.9063 1.75587L53.4968 2.05112L53.9544 2.47925L54.3087 2.55306L54.9731 2.92213L55.7998 2.98118C55.7998 2.98118 56.1688 3.20263 56.2279 3.20263C56.287 3.20263 56.4641 3.20263 56.4641 3.20263L56.7889 3.40931L57.6747 3.32073L57.9109 3.37978L58.1471 3.8079L58.4128 3.95553L58.8409 4.38366L59.4905 4.44271L60.0515 4.61986L60.332 4.82654L60.8044 4.84131L61.5868 5.18085L62.325 5.59421L62.4135 5.80089L62.6498 5.88947L63.4912 6.00757L64.9675 6.5538L65.248 6.96716L65.4842 7.17384L66.0157 7.60196L66.8572 7.73483L67.2705 8.29582L67.7134 8.38439L67.8758 8.48773L68.3039 9.22588L70.0755 10.1117L71.4337 10.8646L71.7732 11.1746L71.8618 11.4551L72.9247 12.4589L73.3971 13.1233L73.6776 13.8319L73.9286 13.9648L74.3715 14.3929L74.5043 14.6734L75.2277 15.2787L75.2868 15.692L75.8478 16.6664L76.3054 16.8878L76.6892 17.3455L77.6341 17.4045L77.7965 17.626L78.0474 17.5374L78.446 17.9507L78.8151 18.0245L79.1546 18.2165L79.6566 18.7184L80.2471 18.9103L80.3504 19.4418L80.9409 20.0175L80.8819 20.4014L81 21.0952L80.8376 21.2133L80.8524 21.3757C80.8524 21.3757 80.9409 21.4938 80.9262 21.5529C80.9114 21.6119 80.6309 22.1729 80.5719 22.1877C80.5128 22.2024 80.2619 22.3353 80.2619 22.3353V22.6896L80.0404 22.7782L79.9814 23.103L79.6123 23.3392L79.4942 23.6344L79.2137 23.7968L78.4313 24.4021L77.8112 24.594L77.3683 24.9336L76.2021 25.3765L76.1578 25.8046L75.9363 26.1294L75.1096 26.7937L74.6963 27.9747L74.7996 28.1962L74.6667 28.2257L74.4305 28.0633L72.8657 28.8457L72.7771 28.6981L71.0941 28.0928L70.6217 28.1666L70.1345 27.8714L69.7802 27.8566L68.673 28.27L68.3482 28.6095L68.2892 29.0081L68.5106 29.141L68.673 29.6429L68.6878 29.9382L68.6287 29.9677L68.5254 29.761L68.3039 29.8496L68.4368 30.0563L68.3777 30.4254L66.621 31.0306H66.06L65.4842 31.2373L64.5394 32.2707L63.3731 32.5807L61.6311 32.6693L61.203 32.5512L59.9334 32.5069L59.4167 32.6398L58.7966 32.9498L58.5309 33.2008L58.2947 33.7322L57.778 33.9685L57.5861 34.1161L56.9808 34.4409L56.656 34.9723L55.5193 35.6367L55.4602 35.8286L54.4564 36.7882L53.3196 37.6001L52.9063 38.1906L52.8915 38.4268L53.1277 38.9731L53.0686 39.3126L53.2606 39.9179L53.1129 40.7003L52.8915 40.9661L52.36 41.217H52.1829L52.1681 41.1137L51.8729 41.0989L51.6219 41.3794L51.1052 41.6451L50.7361 41.6599L50.559 41.8814L50.7656 42.0437L50.6918 42.1471L50.4851 42.0142L50.2637 42.1028H49.9832L49.8503 42.6047L49.6141 42.6933L49.8946 42.7819V42.9295L49.7618 43.3429L49.4517 43.3281L49.5108 42.8409L49.3927 42.7819L49.3336 42.7671L49.0697 42.8615L48.8925 43.0691L48.8243 43.2463L48.8004 43.7205L48.8908 44.2877L49.1122 44.7306L49.5108 45.1292L49.8208 45.4244L49.9389 45.7197L49.9242 45.8378L50.2637 45.9116L50.1013 45.7345L49.9242 45.1587L50.1751 44.9816L50.0127 44.5977L50.0423 44.2286L50.1013 44.081L50.057 43.8891L50.1751 43.7415L50.4261 43.7562L50.5442 44.2582L50.559 45.0111L50.7656 45.8673L50.9428 45.9559L51.1938 46.5907L51.3709 46.5759L51.4004 46.694L51.3414 46.7826L51.5776 46.8564V47.0188L51.3266 46.9745L51.0757 47.1812L51.0166 47.506L50.6771 47.8308L50.4999 48.1408L50.1899 48.7756L49.3632 49.1004C49.3632 49.1004 49.0236 49.3661 48.9498 49.3809C48.876 49.3957 48.4331 49.4842 48.4331 49.4842L47.7245 49.7352L46.8978 49.8238L45.8791 49.7647L44.4767 49.7204L43.5171 49.6023L42.0113 49.0856L41.9522 48.7756L41.8193 48.5542L41.8636 48.067L42.1441 47.5946L42.6165 47.5798L42.8675 47.3584L43.0889 47.4027L43.4285 47.1812L43.8271 46.9303L43.9304 46.3988L44.0485 46.2807L44.1223 46.3102L44.3586 46.1183L44.8162 46.074L44.9048 45.8673L45.141 45.823L45.4658 45.4392H45.9382L46.3663 45.513L46.6616 45.5721L46.9125 45.3211L47.1045 44.7601L47.1192 44.1548L46.9125 43.8891L46.5139 43.5791H46.1153L46.0563 43.3724L46.4992 43.3429L46.6468 42.7966L46.7944 42.3095L47.134 41.8223L46.9716 41.0842L46.632 40.2427L46.1744 39.6226L45.6872 38.8845L45.1853 38.2792L44.3143 37.5558L43.7385 37.0834L42.8527 36.6848L42.6165 36.1534L42.336 35.9171L41.8046 35.0314L41.775 34.6033L41.5831 34.4704L41.4798 34.4852L40.9631 33.7765L39.7525 32.6988L38.4091 31.5621L37.5824 31.0306L36.9181 30.4401L36.5047 30.2777L36.3866 30.2482L36.3718 30.0268H36.2833L36.2537 29.7758L35.3237 28.8605L34.9989 28.6981L34.7627 28.329L34.2755 28.019H33.9507L33.9064 27.8419L33.6259 27.709L33.0207 27.0742L33.1092 26.9856L32.5335 26.5132L31.7363 25.9817L31.2344 25.8489C31.2344 25.8489 30.6881 25.3912 30.57 25.3469C30.4519 25.3026 29.33 24.7121 29.33 24.7121L28.9609 24.6974L26.9236 23.9445L26.1412 23.7673L25.5507 23.7378L25.2111 23.4868L25.093 23.472L25.0044 23.1325L24.7239 23.0587L24.3696 22.8668L24.2515 22.4977L23.971 22.3058L23.3215 22.1286C23.3215 22.1286 22.0371 21.8924 21.9633 21.8334C21.8895 21.7743 20.9742 21.5381 20.9742 21.5381L20.0293 21.361L19.4979 21.3462L17.6378 21.3905L16.2648 21.4938L14.8476 21.8334L13.8142 22.0401L12.766 21.9958L11.8212 21.7891L11.6145 21.7596L11.3045 21.7743L10.7583 21.6562L10.3892 21.42L10.3154 21.2576L9.90201 20.8885L9.96106 20.7409L9.93154 20.6966L10.0054 20.5342L9.26721 19.7518L8.80956 19.4861V19.3532L8.17476 18.6889L8.08618 18.2608L7.74663 17.9507L6.97896 17.6702L6.41797 17.1978L6.40321 16.873V16.5187L6.59513 16.2087L6.49179 15.7511L5.87175 15.2787L4.95645 14.3043L4.58738 14.0533L4.57262 13.9205L4.15925 13.64L4.04115 13.3004L3.95257 13.138V12.8723L3.52445 12.2227L3.28825 11.7503L2.90441 11.4994L2.69773 11.0565L2.26961 10.6431C2.26961 10.6431 2.00388 9.90497 1.9153 9.87544C1.82672 9.84592 1.5167 8.29582 1.5167 8.29582L1.41336 8.11866L1.44289 7.94151L1.14763 7.72007L1.10334 7.49862L1 7.3067L1.02953 6.99669L1.13287 6.80477L1.33955 6.45046L1.44289 6.46522V6.65714L1.6348 6.79001L1.85625 7.11479L1.84148 7.45433L1.64957 7.55767L1.6348 7.69054L1.73814 7.73483L1.90054 7.64625L2.22532 7.5872L2.69773 6.86382L2.80107 6.90811L2.77154 7.15908L3.02251 7.04097L3.30301 6.80477L2.93394 6.58332L2.78631 6.61285L2.72726 6.4357L2.34342 6.49475L1.87101 6.25854L1.81196 5.71232L1.9153 5.5204L1.90054 5.25467L1.76767 4.69368L1.45765 4.33937L1.05905 3.89648L1.10334 3.73409L1.13287 3.33549L1.20668 3.01071L1.17715 2.81879L1.26573 2.5383Z" fill="#CFCDC7" stroke="white" stroke-width="0.0520918"/>
<path d="M47.1722 41.8334L46.9639 42.1199L48.1359 43.0054L48.3443 42.9273L48.5527 42.6929L48.8392 42.7971V42.6148L49.0996 42.4324L49.308 42.5366L49.3861 41.9115L48.9173 40.9739L49.6466 39.0986L49.3861 38.5255L49.6466 38.213L49.9591 37.8223L50.3498 37.5618L50.4801 37.3274L50.1154 37.093L49.7768 36.4158L49.9591 36.1814V34.801L49.6466 34.5926L49.9591 34.1498V33.9415V32.8475L49.4643 31.8317H49.1517V31.389L48.6829 30.6597L48.2141 30.5815L48.188 30.3211L48.6829 30.1388V29.6439L48.3964 29.5397V29.0969L48.0317 28.4979V28.2114H47.8234L46.7034 28.003L46.469 28.2114L46.3388 28.0811L46.0002 28.3416H45.3751L45.0104 28.0811H43.9946L44.6979 29.0969L45.7137 30.6597L46.469 32.3527L47.068 34.5926L46.8597 35.3479L46.0002 36.4158L45.896 36.8065L45.3751 38.5255L46.6513 40.2446L46.9639 41.078L47.1722 41.8334Z" fill="#4B4D4C" stroke="#4B4D4C" stroke-width="0.0520918"/>
</svg>
