<svg width="82" height="50" viewBox="0 0 82 50" fill="none" xmlns="http://www.w3.org/2000/svg">
<path d="M11.6824 21.753L11.8005 21.644H12.1003L12.391 21.4986L12.7635 21.3987L13.0451 21.217L13.036 20.899L12.9361 20.7991L12.9452 20.6356L12.7998 20.4811L12.6726 20.463L12.5545 20.3721L12.5818 20.145" stroke="#CFCDC7" stroke-width="0.0520918" stroke-linecap="round" stroke-linejoin="round"/>
<path d="M13.0635 21.2177L13.4905 21.2359L13.7721 21.4449L14.1718 21.0996L14.2263 20.9088L14.3899 20.7635H14.6987" stroke="#CFCDC7" stroke-width="0.0520918" stroke-linecap="round" stroke-linejoin="round"/>
<path d="M2.77183 7.15508L2.54987 7.41283L2.50537 8.34734L2.95038 8.6366L4.30766 8.74785L4.88617 8.48085L5.28668 8.85911L5.68718 8.83685L5.86519 9.25961L6.46595 9.23736L7.28922 8.34734L8.29049 8.74785L8.80225 8.7256L9.15825 8.48085L9.71451 8.30284L10.8493 7.34607L11.8728 7.50183L12.4068 7.90233L12.7406 7.92459L12.7628 8.19159L13.1549 8.79404L13.5193 9.66012L14.0088 10.0606L14.7876 10.3721L14.8099 10.5946L15.8111 10.2831L16.2561 10.3944L16.8124 10.8616L16.9682 10.8171L17.2797 10.0606L17.2574 9.41537L17.8359 8.83685L18.0139 8.8146L18.3032 9.12611L19.3712 9.83812L20.8397 10.4166L21.0845 10.8171L21.3292 10.8616L21.7075 11.9964L21.9078 12.3747H22.286L22.5085 12.9532L22.7533 12.7084H23.0203L23.0648 12.3524H23.354L23.9103 12.4859L23.9325 12.2634L24.2886 12.1077L24.6196 12.2311L25.1563 12.7084L25.0896 12.9087L24.6891 12.9754L24.9338 13.6874L24.7781 13.732L25.2008 14.1992L25.0451 14.4662L25.0896 14.8445H25.2231L25.2898 15.69L25.2231 16.2685L25.6013 16.402L25.4678 16.6023L25.5346 17.1808L26.5136 17.6258L26.7806 17.3588L26.9809 17.5368L27.1811 17.47L27.8264 17.8483C27.8264 17.8483 27.7819 17.4033 27.8931 17.4033C28.0044 17.4033 28.4271 17.47 28.4271 17.47L28.9611 18.0485L29.3172 18.0708L29.7399 18.6715L30.1182 18.7606L30.2294 19.3168L30.5187 19.6951L30.5409 19.8731L31.0972 20.1846L32.2765 20.4071V20.6741L32.6547 21.0078L32.5435 21.3861L31.876 22.4986L31.787 22.8769L31.9427 22.9436L31.9205 23.6557L32.0095 23.9449L31.876 24.5902L31.4754 25.0352L31.3501 25.8666" stroke="#CFCDC7" stroke-width="0.0520918" stroke-linecap="round" stroke-linejoin="round"/>
<path d="M65.1034 6.77979L64.2545 7.20787V7.51429L63.9822 7.71857L64.1524 8.05904L64.7312 8.36546L65.0717 8.84212L64.5269 9.14855L64.3567 9.65925L64.0503 10.0678L64.4588 10.5445L64.4929 11.1233L64.6631 11.3956L64.595 11.7021L64.8333 11.8042L65.2079 11.5659L65.31 11.9744L64.6631 12.2468L64.2545 12.7235L63.5055 13.132L63.4374 13.4725L63.6077 13.6768L63.165 14.8684L63.0288 15.5153L62.8586 15.5834L62.9948 15.992L62.6203 16.0941L62.7224 16.5027L62.2117 16.6729V17.6262L62.0074 17.8305L61.5989 17.9667L61.4286 19.0222L61.9394 20.1457L61.8372 20.35L62.0415 20.6224L62.1777 21.2012L62.7224 21.5757L62.6543 22.0864L62.4841 22.6311L62.6203 23.3461L62.1436 24.674L61.8372 24.7761L61.8032 25.0485L61.2925 25.0144L60.8158 25.6954L60.1689 25.3209L59.5561 26.2401L59.3177 27.0572L59.0113 27.4658L58.9432 28.0446L58.7049 28.4191L59.0113 29.1001L58.058 29.4065L57.6154 29.1682L57.4792 28.8958L57.1728 28.5553L57.309 28.1808L57.1047 27.4318L56.8323 27.1934L57.0706 26.853V26.2742L56.9685 25.9677L57.0706 25.5251L56.8664 24.5378L56.6961 24.0271L56.4237 23.5845L57.309 22.495L57.343 21.3374L57.6494 20.5883L57.6154 20.2479L57.5132 20.1457L57.7175 19.8052L57.6835 19.4307L57.0366 19.2945L56.9685 19.1584L57.2749 18.8519V17.9667L57.1387 17.0815L56.7983 16.9793L56.4237 17.4901L56.2876 17.0134L55.8109 16.9793L55.4364 17.3879L54.9597 17.1836L54.9257 16.8772L54.8576 16.1963L54.4831 16.026L53.5638 16.6389L53.1212 17.2858L53.019 17.2517L53.0531 16.5367L52.7467 16.1282L52.3041 16.0941L52.0657 15.4472L51.8615 14.8003L51.9636 13.847L52.236 13.2342V12.7235L51.555 11.7361L51.0784 11.4637L51.4529 10.919L51.7253 10.0338L51.7934 9.18259L51.9636 8.63784L51.7253 8.09309L51.8955 7.78667L51.8274 7.54834L51.9636 7.10573L52.5764 7.58239L52.8148 7.20787L53.2233 6.73121L53.6659 6.66312L54.0745 6.42479L54.2107 6.62907V6.93549L54.6533 7.10573L54.9257 7.00359L55.4364 7.31001H55.8109L55.6066 6.8674L56.1173 6.62907L56.4918 6.01623L56.3897 5.60766L56.8664 5.36933L57.4111 6.08432L57.7856 5.81194V5.30124L58.3644 5.74385L58.6708 5.84599L59.2156 5.43743L59.488 5.47147L59.2156 5.91408L59.6922 5.94813L59.4199 6.22051L59.522 6.66312L59.8965 6.93549L60.1689 6.56098L60.4413 6.83335L60.3391 7.10573L60.8839 7.4462L61.4967 7.51429L61.8372 6.96954L62.4841 7.13977L62.8586 7.41215L62.5862 7.82071L62.6884 8.09309L63.6417 7.78667L63.9799 7.72087" stroke="#CFCDC7" stroke-width="0.0520918" stroke-linecap="round" stroke-linejoin="round"/>
<path d="M32.2785 20.4173L32.2917 20.1543L32.1311 20.0855L32.2458 19.3514L32.3834 18.9156L32.6816 18.755L32.8881 19.0074L33.4157 19.0303L33.8286 17.7916L33.8057 17.5392L34.1039 17.1263L33.9892 16.6217L34.3333 15.8417L34.6315 15.5206L35.1361 15.36L35.6179 15.0848L35.4344 14.5113H35.8014L36.2143 15.0848L36.2372 15.1536L36.6043 15.1994L37.453 15.9564L37.82 15.6812L38.0953 15.8188L38.2788 15.36L38.577 15.2453L39.2652 15.5894L39.4717 15.7959L39.8616 15.6812L40.5269 15.9106L42.1097 16.0482L42.5685 15.6353L43.0731 15.6582L42.9814 15.2224L43.2108 15.0389L43.7842 15.3371L44.0136 15.7041H44.4724L44.633 15.1994L44.6789 14.603L45.2523 13.4331L45.8258 13.1349L45.9864 12.7679L46.4681 12.6991L46.904 12.4238L47.1792 12.3779L47.3398 11.965L47.8674 11.6439L48.1656 11.7815H49.1979L49.3355 11.9421L50.0237 11.9191L50.6431 11.6668H51.056L51.0833 11.4568" stroke="#CFCDC7" stroke-width="0.0520918" stroke-linecap="round" stroke-linejoin="round"/>
<path d="M48.1629 11.7807L48.4637 12.2404L48.5096 13.2039L48.349 13.4103L48.3949 13.6626L48.8537 14.0067L48.8766 14.3738L49.1978 14.7408L49.4272 15.5207L49.6566 15.8648L49.6107 16.5989L49.2666 17.1953L49.3125 18.4111L48.9684 18.824L49.0831 19.4892L49.4272 20.0168L49.6336 20.1544L49.8401 21.3243L49.7713 22.1731L50.1612 23.6641L50.0695 24.1917L49.7254 25.224L49.3813 25.8204L49.3125 27.0362L48.9225 27.0821L48.8537 26.8986L49.0372 26.1875L49.0602 25.7516L48.9684 25.3387L49.2666 24.5588L48.9455 24.3294L48.372 24.1917L47.8673 24.7193L47.6838 25.1781L47.5462 25.4763V25.6369L47.8444 25.6599L47.8214 25.8663L47.7526 26.0269L47.6609 26.7839L47.8214 27.0133L48.0967 27.1509V27.7932L47.7067 28.1144L47.615 28.5502L47.3856 28.7796L47.248 29.4448L46.9039 29.7889L46.7662 30.4542C46.7662 30.4542 46.7892 30.7982 46.7662 30.89C46.7433 30.9818 46.1927 32.4728 46.1927 32.4728L45.9634 32.8169L45.9404 33.528L46.3992 33.9639L46.3533 34.1703L45.9863 34.2162L45.8945 34.6062H45.5505L45.344 34.8355V35.0879L44.9999 34.9502L44.9311 34.5603L44.0594 34.7667L43.83 35.1567L43.1648 35.5925L43.1877 35.8449L42.9354 36.0743L42.78 36.4965" stroke="#CFCDC7" stroke-width="0.0520918" stroke-linecap="round" stroke-linejoin="round"/>
<path d="M48.5488 42.6807L48.2572 41.8767L48.2801 41.5785L48.2113 41.3032V40.9592L47.7525 40.8903V40.2939L47.8902 39.9728L47.6837 39.7434L47.6608 39.5369H47.5231L47.4314 39.2846L47.8902 38.8258L47.6149 38.4129L47.5002 37.8853L47.8214 37.5641L47.9131 37.3347L47.9361 35.9813L47.7984 35.8666V35.7061L47.9361 35.6373L47.7984 35.1096L48.4637 34.8803L48.9224 34.8344V34.3756L49.2665 34.215L49.7253 34.1462L49.9088 33.9168L50.7576 33.8709V33.6415L51.2393 33.5727L51.5605 33.9627L51.3769 34.215L51.7669 34.3068L51.9045 34.8344L52.6845 35.6373L52.7533 36.1419L52.9139 36.3942L53.1662 36.4172L53.258 36.6925L53.5562 36.7613L53.5791 37.0365L53.7894 37.2516" stroke="#CFCDC7" stroke-width="0.0520918" stroke-linecap="round" stroke-linejoin="round"/>
<path d="M51.7734 34.3094L51.8813 33.5733L52.2025 33.0457L52.1795 31.9446L52.0189 31.5317L51.6978 31.2335L51.1243 30.3388L51.2161 29.7654L51.0326 29.3066L51.2161 28.5725L51.5143 28.4578L51.4913 27.999L51.7896 27.7467L51.6519 27.242L51.8354 26.8291L51.8584 26.3015L51.7207 26.118L51.7666 25.5904L51.1014 24.604L50.9867 23.9847L51.1931 23.2047L51.0326 22.5854L50.8949 22.2872L50.872 21.3467L50.6885 21.0026L50.9408 20.452L51.1473 20.3144L51.3078 19.6492L51.2161 19.4427L51.3767 19.2133L51.3078 18.8004L51.606 18.2499L51.7437 17.9287L52.1107 17.7452L52.2713 17.3782L52.1566 17.1488L51.7666 17.0341L52.1107 16.4835L52.3004 16.0906" stroke="#CFCDC7" stroke-width="0.0520918" stroke-linecap="round" stroke-linejoin="round"/>
<path d="M59.0093 29.1001L59.1955 29.3906L59.3645 30.0454L59.3433 30.5734L59.1532 30.848L59.4278 31.0381L59.4701 31.6296L59.8714 32.0098L59.8412 32.526" stroke="#CFCDC7" stroke-width="0.0520918" stroke-linecap="round" stroke-linejoin="round"/>
<path d="M61.7976 25.0437L61.8572 25.313L61.2869 25.9678L61.0757 26.6437L61.2024 26.686L61.8783 26.3903L62.1107 26.1579L62.4909 26.0523L62.5331 26.4536L62.343 26.5592L62.2797 27.0028L62.4486 27.6999L62.5965 27.8055L62.5754 28.3546L62.1952 28.5659L61.9839 28.6292V28.7771L62.1318 29.0517L62.0684 29.3263L62.3219 29.7065L62.4486 29.3263L62.9767 29.3051L63.1457 29.0939L63.8638 29.0728L64.3708 28.6081L64.6031 28.3335L64.8988 28.3124L65.279 28.0589L65.5958 28.0167L65.9972 28.3546L66.0605 28.6715L66.3774 28.9461L66.4407 29.3474L66.314 29.4741L66.3351 30.1712L66.6731 30.5725L66.6206 31.0207" stroke="#CFCDC7" stroke-width="0.0520918" stroke-linecap="round" stroke-linejoin="round"/>
<path fill-rule="evenodd" clip-rule="evenodd" d="M45.2969 11.5232L45.0453 11.3522L44.5189 11.2742L44.0772 11.3505L43.5853 11.3053L43.0874 11.6788L43.2741 11.8655V12.1145L43.7409 12.2701L44.1144 12.1145L44.6123 12.2078L44.799 12.0833L44.9235 11.7721L45.1951 11.7061L45.2969 11.5232Z" stroke="#CFCDC7" stroke-width="0.0520918" stroke-linecap="round" stroke-linejoin="round"/>
<path fill-rule="evenodd" clip-rule="evenodd" d="M42.7375 11.9139L42.263 12.3184L42.1846 12.8001L42.3875 13.0423L42.6518 13.0107L42.9319 12.4506L42.9003 12.1155L42.7375 11.9139Z" stroke="#CFCDC7" stroke-width="0.0520918" stroke-linecap="round" stroke-linejoin="round"/>
<path fill-rule="evenodd" clip-rule="evenodd" d="M47.1022 12.8611L48.0363 13.0334L48.067 13.4213L47.8491 13.9192L47.4757 14.2304L46.9155 14.0437L47.0089 13.5147L47.0003 13.157L47.1022 12.8611Z" stroke="#CFCDC7" stroke-width="0.0520918" stroke-linecap="round" stroke-linejoin="round"/>
<path fill-rule="evenodd" clip-rule="evenodd" d="M62.6929 10.4038L62.3817 10.4349L62.2883 10.6839L62.3817 10.9951L62.0705 11.5552L61.7593 11.9287L61.4792 12.52L61.1991 12.7067L60.919 13.2046H60.7012L60.4833 13.578L60.2966 13.6714L60.3589 13.7648L60.8257 14.0448L61.2302 14.4183L62.2572 13.9204L62.3817 13.4224L62.7862 13.1112L62.724 12.9245L63.1286 12.2087L63.2219 11.6486L63.0974 11.3685V11.0262L62.6929 10.4038Z" stroke="#CFCDC7" stroke-width="0.0520918" stroke-linecap="round" stroke-linejoin="round"/>
<path fill-rule="evenodd" clip-rule="evenodd" d="M48.2671 41.867L48.2834 42.5048L48.4143 42.5865L48.496 42.4394L48.5124 42.2922L48.2671 41.867Z" stroke="#CFCDC7" stroke-width="0.0520918" stroke-linecap="round" stroke-linejoin="round"/>
<path fill-rule="evenodd" clip-rule="evenodd" d="M48.664 43.2684L48.1359 43.2746L48.1196 43.5363L48.0051 43.6834L48.0215 43.8633L47.907 44.0596L47.956 44.403L48.1686 44.5338L48.2177 44.4193L48.4793 44.6156L48.6919 45.0244V45.286L49.0026 45.5967H49.297L49.5586 45.8584H49.7875L49.7548 45.6294L49.297 45.1879L48.9507 44.8368L48.6905 44.2822L48.6279 43.7325L48.664 43.2684Z" stroke="#CFCDC7" stroke-width="0.0520918" stroke-linecap="round" stroke-linejoin="round"/>
<path fill-rule="evenodd" clip-rule="evenodd" d="M49.3788 42.2104L49.3297 42.4884L49.1008 42.4067L48.8392 42.5538L48.8228 42.7828L48.5612 42.6846L48.3813 42.9136L48.1687 42.979V43.1098L48.6708 43.0987L48.7853 42.9497L48.9935 42.7351L49.1335 42.6683L49.526 42.5865L49.7386 42.4721V42.3249L49.3788 42.2104Z" stroke="#CFCDC7" stroke-width="0.0520918" stroke-linecap="round" stroke-linejoin="round"/>
<path d="M8.27075 11.9682L8.56488 12.1806L8.71195 12.197L8.79365 11.9519L8.66293 11.527L8.71195 11.3963L8.85902 11.7231L8.9734 12.0826L8.81 12.344L8.5322 12.4258L8.27075 11.9682Z" stroke="#CFCDC7" stroke-width="0.0520918" stroke-linecap="round" stroke-linejoin="round"/>
<path d="M64.7607 38.034L65.8624 38.2543L66.0827 38.4526L66.1268 38.673L65.9285 39.1136L65.3115 39.5102L65.0031 39.5984L64.6726 40.0391H64.1217H63.7912L63.6149 39.8848L63.4607 39.9289L63.3065 39.6645L63.3505 39.5323L63.1963 39.334L63.4607 39.2458L63.6149 39.3119L63.7692 39.0916L63.9454 39.2458L64.1878 39.0916H64.3641L64.4963 38.9814L64.5404 38.3204L64.7607 38.034Z" fill="#CFCDC7" stroke="#CFCDC7" stroke-width="0.0520918" stroke-linecap="round" stroke-linejoin="round"/>
<path d="M65.5983 39.6196L65.2678 39.7298L65.2017 39.8399L64.6949 40.1264L64.5847 40.3247L64.1 40.4349L63.8796 40.8755L63.9898 41.0738L64.3644 41.184L64.3864 41.0077L64.5627 40.9637L64.6288 40.7874L64.783 40.7654L65.4 40.2145L65.5983 39.6196Z" fill="#CFCDC7" stroke="#CFCDC7" stroke-width="0.0520918" stroke-linecap="round" stroke-linejoin="round"/>
<path d="M67.2065 38.6733L66.9861 39.3564H66.7658L66.4793 39.5327L65.8183 40.3479L65.8624 40.5022H65.7302L65.5319 40.7445L65.5539 40.8327H65.4217L65.0912 41.2073L65.2234 41.4276L64.6946 41.692L64.5183 41.8683L64.4963 42.0886L64.7607 42.2649L64.4302 42.5073L64.5403 42.5954L64.8709 42.5513L64.8268 42.6615L65.0251 42.7056L64.7387 43.2344L64.7827 43.4988L65.7081 43.3886L65.9946 43.609L66.0607 43.8734L66.3251 43.7632L66.6997 44.2039L66.92 44.27L66.8539 44.7107L67.3827 44.953L67.6031 44.8429L67.9336 45.2395H68.4624L69.0794 45.6581L69.3438 45.9886L69.2777 46.231L69.52 46.2751L69.5421 46.7598L70.0048 46.5836L70.2912 46.6717L70.7099 46.7378L71.0404 46.9802H71.437L71.6353 47.2005L71.8997 47.2225L72.1641 47.5971L72.5387 47.509L72.7811 47.5971L73.0234 47.8836L73.42 47.9276L73.5302 47.8175L73.4641 47.7293L73.5743 47.7514L73.7065 47.6853L73.6845 47.4869L73.9048 47.4429L74.059 47.2225L74.4557 47.1564L74.4116 46.9802L74.4777 46.9141L74.3895 46.5615L74.4997 46.3191L74.4777 46.0768L74.654 46.0327L74.7201 45.7022H74.9624L75.0946 45.5259V45.3937L75.337 45.1073L75.6455 45.2615L75.8658 45.3276L75.954 45.4819L76.0641 45.2835L75.7557 44.953L75.8658 44.6886L75.5574 44.2259L75.6455 44.0496L75.5353 43.8513V43.7191L75.0946 43.1022L74.8743 43.0361L74.8082 42.7496L74.1251 42.1547L73.8607 42.0225L73.7506 41.8462L73.7285 41.4276L73.4421 41.2954L73.398 41.1191L73.1997 40.8767L73.0895 40.8327L72.9794 40.0394L72.6268 39.4445L72.3404 39.0039L71.8116 38.6733L70.9743 38.6513L70.4675 38.8716L69.8946 38.9598L69.1455 38.9818L68.3743 38.8055L67.7573 38.6072L67.2065 38.6733Z" fill="#4B4D4C" stroke="#4B4D4C" stroke-width="0.520918" stroke-linecap="round" stroke-linejoin="round"/>
<path d="M5.47559 2.26961L6.23144 2.09518L7.07452 2.15333L7.08905 2.29868L6.79834 2.57486L6.3768 2.64754L6.02794 2.45858L5.47559 2.40044V2.26961Z" fill="#CFCDC7" stroke="#CFCDC7" stroke-width="0.0520918" stroke-linecap="round" stroke-linejoin="round"/>
<path d="M50.8489 41.9985L51.1596 41.8677L51.3232 41.7205L51.5685 41.7532L51.8628 42.0148L51.9119 42.2438L51.781 42.2928L51.6666 42.2111L51.6012 42.113L51.4867 42.2111L51.5848 42.3092H51.6829L51.6993 42.4237H51.5357L51.5521 42.5218L51.3559 42.7344L51.4376 42.7507L51.6012 42.5872L51.732 42.6199L51.8628 42.5054L51.8301 42.3746L51.9773 42.1947L52.1571 42.2111V42.3092L52.0427 42.4727L52.059 42.6362L51.8301 42.7017L51.7974 42.9142L51.503 43.1759L51.2578 43.1595L51.1269 42.9797L50.9961 42.8815H50.8162L50.7999 43.0451L50.9634 43.1759H51.1269L51.2741 43.3231L51.1923 43.4702L51.0288 43.4866L50.9634 43.6992L50.8653 43.7319L50.5382 43.5683H50.4565L50.1785 43.4212L50.2766 42.8979L50.3911 42.5545L50.4892 42.3255L50.669 42.2438L50.8489 41.9985Z" fill="#CFCDC7" stroke="#CFCDC7" stroke-width="0.0520918" stroke-linecap="round" stroke-linejoin="round"/>
<path d="M1.26573 2.5383L1.70862 2.28733L2.09245 2.30209L2.24008 2.22828L2.49105 2.30209L4.21831 2.47925L4.48404 2.22828L4.77929 2.28733L5.05979 2.55306V2.74498H5.23694L6.77228 4.85607L6.72799 5.09227L6.31463 5.47611L6.49179 5.5204L6.37369 5.80089L6.5656 6.00757L6.78705 6.05186L7.03801 6.00757L7.79092 5.34324L7.82045 5.16609L8.14523 5.07751L8.45525 4.70844L8.80956 4.59034L9.00148 4.70844V5.07751L9.25245 5.31372L9.65104 5.06275L9.56247 4.94465H9.16387L9.14911 4.63463L9.40007 4.47223L9.63628 4.38366L9.85772 4.32461L9.93154 4.05887L10.6844 3.83743L11.024 3.89648L11.275 4.11792L11.1716 4.47223L11.1273 4.90036L11.2454 5.07751L11.5407 4.87083L11.6293 5.01846L11.8359 5.03322L11.9098 4.79702L12.3526 4.64939L12.3379 4.30984H12.4855L12.6922 3.9703L12.8103 4.28032L13.4746 4.39842L13.7256 4.59034L13.8142 4.84131L14.0799 5.01846L14.3013 4.85607L14.2866 4.6051L14.3899 4.50176L14.6261 4.87083L14.8623 5.09227L15.0543 5.38753L15.32 5.40229L15.4824 5.29895L15.571 5.41706L16.2058 5.60897L16.5748 5.43182L17.2834 5.37277L17.5935 5.49087L17.9182 5.78613L18.1249 5.84518L18.4202 6.12567L18.6564 6.08139L18.6859 5.85994L18.8483 5.7566L18.8778 5.81565L18.7893 5.99281L18.8631 6.1552L19.2174 6.2733L19.3798 6.24378L20.1032 6.47998L21.0037 7.04097L21.358 6.9524L22.1404 7.23289H22.3619L24.3696 7.80864L24.5911 8.00056L25.0044 8.03009L25.093 7.9858L25.1816 8.00056L25.2406 8.222L25.5654 8.44345L25.7869 8.38439L26.0231 8.08914L26.1412 8.13343L26.0674 8.31058L26.1855 8.45821L26.5102 8.5025L26.6136 8.31058H26.7022L27.1155 8.56155L27.8094 8.69441L28.7247 8.63536L29.7876 8.19248L30.2157 8.17771L30.6143 8.01532V7.91198L30.7619 7.82341L30.9686 7.91198L32.1349 7.69054L32.5778 7.86769L33.3307 7.77912L34.807 7.74959L35.6632 7.67578L36.0766 7.42481L36.5785 7.41004L36.8295 7.24765L37.0952 6.68666H37.7153L38.04 6.53904L38.232 6.14044L38.5863 5.93376L39.0439 5.54992L39.472 5.43182L39.6935 5.22514V5.0037L40.1807 4.67891L40.3283 4.32461L40.9188 3.66028L41.1993 3.54217L41.3026 3.36502L41.8784 2.89261L42.1736 2.80403L43.7533 1.56395L43.8714 1.37203L44.0338 1.41632L44.329 1.40156L44.7571 1.23916L46.4106 0.33863L48.1378 0.176239L49.3927 0.95867L49.6289 0.973433L51.2085 1.51966L51.9319 1.56395L52.9063 1.75587L53.4968 2.05112L53.9544 2.47925L54.3087 2.55306L54.9731 2.92213L55.7998 2.98118C55.7998 2.98118 56.1688 3.20263 56.2279 3.20263C56.287 3.20263 56.4641 3.20263 56.4641 3.20263L56.7889 3.40931L57.6747 3.32073L57.9109 3.37978L58.1471 3.8079L58.4128 3.95553L58.8409 4.38366L59.4905 4.44271L60.0515 4.61986L60.332 4.82654L60.8044 4.84131L61.5868 5.18085L62.325 5.59421L62.4135 5.80089L62.6498 5.88947L63.4912 6.00757L64.9675 6.5538L65.248 6.96716L65.4842 7.17384L66.0157 7.60196L66.8572 7.73483L67.2705 8.29582L67.7134 8.38439L67.8758 8.48773L68.3039 9.22588L70.0755 10.1117L71.4337 10.8646L71.7732 11.1746L71.8618 11.4551L72.9247 12.4589L73.3971 13.1233L73.6776 13.8319L73.9286 13.9648L74.3715 14.3929L74.5043 14.6734L75.2277 15.2787L75.2868 15.692L75.8478 16.6664L76.3054 16.8878L76.6892 17.3455L77.6341 17.4045L77.7965 17.6259L78.0474 17.5374L78.446 17.9507L78.8151 18.0245L79.1546 18.2165L79.6566 18.7184L80.2471 18.9103L80.3504 19.4418L80.9409 20.0175L80.8819 20.4014L81 21.0952L80.8376 21.2133L80.8524 21.3757C80.8524 21.3757 80.9409 21.4938 80.9262 21.5529C80.9114 21.6119 80.6309 22.1729 80.5719 22.1877C80.5128 22.2024 80.2619 22.3353 80.2619 22.3353V22.6896L80.0404 22.7782L79.9814 23.103L79.6123 23.3392L79.4942 23.6344L79.2137 23.7968L78.4313 24.4021L77.8112 24.594L77.3683 24.9336L76.2021 25.3765L76.1578 25.8046L75.9363 26.1294L75.1096 26.7937L74.6963 27.9747L74.7996 28.1962L74.6667 28.2257L74.4305 28.0633L72.8657 28.8457L72.7771 28.6981L71.0941 28.0928L70.6217 28.1666L70.1345 27.8714L69.7802 27.8566L68.673 28.27L68.3482 28.6095L68.2892 29.0081L68.5106 29.141L68.673 29.6429L68.6878 29.9382L68.6287 29.9677L68.5254 29.761L68.3039 29.8496L68.4368 30.0563L68.3777 30.4254L66.621 31.0306H66.06L65.4842 31.2373L64.5394 32.2707L63.3731 32.5807L61.6311 32.6693L61.203 32.5512L59.9334 32.5069L59.4167 32.6398L58.7966 32.9498L58.5309 33.2008L58.2947 33.7322L57.778 33.9684L57.5861 34.1161L56.9808 34.4409L56.656 34.9723L55.5193 35.6367L55.4602 35.8286L54.4564 36.7882L53.3196 37.6001L52.9063 38.1906L52.8915 38.4268L53.1277 38.9731L53.0686 39.3126L53.2606 39.9179L53.1129 40.7003L52.8915 40.966L52.36 41.217H52.1829L52.1681 41.1137L51.8729 41.0989L51.6219 41.3794L51.1052 41.6451L50.7361 41.6599L50.559 41.8813L50.7656 42.0437L50.6918 42.1471L50.4851 42.0142L50.2637 42.1028H49.9832L49.8503 42.6047L49.6141 42.6933L49.8946 42.7819V42.9295L49.7618 43.3429L49.4517 43.3281L49.5108 42.8409L49.3927 42.7819L49.3336 42.7671L49.0697 42.8615L48.8925 43.0691L48.8243 43.2463L48.8004 43.7205L48.8908 44.2877L49.1122 44.7306L49.5108 45.1292L49.8208 45.4244L49.9389 45.7197L49.9242 45.8378L50.2637 45.9116L50.1013 45.7345L49.9242 45.1587L50.1751 44.9815L50.0127 44.5977L50.0423 44.2286L50.1013 44.081L50.057 43.8891L50.1751 43.7415L50.4261 43.7562L50.5442 44.2582L50.559 45.0111L50.7656 45.8673L50.9428 45.9559L51.1938 46.5907L51.3709 46.5759L51.4004 46.694L51.3414 46.7826L51.5776 46.8564V47.0188L51.3266 46.9745L51.0757 47.1812L51.0166 47.506L50.6771 47.8308L50.4999 48.1408L50.1899 48.7756L49.3632 49.1004C49.3632 49.1004 49.0236 49.3661 48.9498 49.3809C48.876 49.3956 48.4331 49.4842 48.4331 49.4842L47.7245 49.7352L46.8978 49.8238L45.8791 49.7647L44.4767 49.7204L43.5171 49.6023L42.0113 49.0856L41.9522 48.7756L41.8193 48.5542L41.8636 48.067L42.1441 47.5946L42.6165 47.5798L42.8675 47.3584L43.0889 47.4027L43.4285 47.1812L43.8271 46.9302L43.9304 46.3988L44.0485 46.2807L44.1223 46.3102L44.3586 46.1183L44.8162 46.074L44.9048 45.8673L45.141 45.823L45.4658 45.4392H45.9382L46.3663 45.513L46.6616 45.5721L46.9125 45.3211L47.1045 44.7601L47.1192 44.1548L46.9125 43.8891L46.5139 43.5791H46.1153L46.0563 43.3724L46.4992 43.3429L46.6468 42.7966L46.7944 42.3095L47.134 41.8223L46.9716 41.0842L46.632 40.2427L46.1744 39.6226L45.6872 38.8845L45.1853 38.2792L44.3143 37.5558L43.7385 37.0834L42.8527 36.6848L42.6165 36.1534L42.336 35.9171L41.8046 35.0314L41.775 34.6032L41.5831 34.4704L41.4798 34.4851L40.9631 33.7765L39.7525 32.6988L38.4091 31.5621L37.5824 31.0306L36.9181 30.4401L36.5047 30.2777L36.3866 30.2482L36.3718 30.0268H36.2833L36.2537 29.7758L35.3237 28.8605L34.9989 28.6981L34.7627 28.329L34.2755 28.019H33.9507L33.9064 27.8419L33.6259 27.709L33.0207 27.0742L33.1092 26.9856L32.5335 26.5132L31.7363 25.9817L31.2344 25.8489C31.2344 25.8489 30.6881 25.3912 30.57 25.3469C30.4519 25.3026 29.33 24.7121 29.33 24.7121L28.9609 24.6974L26.9236 23.9445L26.1412 23.7673L25.5507 23.7378L25.2111 23.4868L25.093 23.472L25.0044 23.1325L24.7239 23.0587L24.3696 22.8668L24.2515 22.4977L23.971 22.3058L23.3215 22.1286C23.3215 22.1286 22.0371 21.8924 21.9633 21.8334C21.8895 21.7743 20.9742 21.5381 20.9742 21.5381L20.0293 21.361L19.4979 21.3462L17.6378 21.3905L16.2648 21.4938L14.8476 21.8334L13.8142 22.0401L12.766 21.9958L11.8212 21.7891L11.6145 21.7596L11.3045 21.7743L10.7583 21.6562L10.3892 21.42L10.3154 21.2576L9.90201 20.8885L9.96106 20.7409L9.93154 20.6966L10.0054 20.5342L9.26721 19.7518L8.80956 19.4861V19.3532L8.17476 18.6889L8.08618 18.2608L7.74663 17.9507L6.97896 17.6702L6.41797 17.1978L6.40321 16.873V16.5187L6.59513 16.2087L6.49179 15.7511L5.87175 15.2787L4.95645 14.3043L4.58738 14.0533L4.57262 13.9205L4.15925 13.64L4.04115 13.3004L3.95257 13.138V12.8723L3.52445 12.2227L3.28825 11.7503L2.90441 11.4994L2.69773 11.0565L2.26961 10.6431C2.26961 10.6431 2.00388 9.90497 1.9153 9.87544C1.82672 9.84592 1.5167 8.29582 1.5167 8.29582L1.41336 8.11866L1.44289 7.94151L1.14763 7.72007L1.10334 7.49862L1 7.3067L1.02953 6.99668L1.13287 6.80477L1.33955 6.45046L1.44289 6.46522V6.65714L1.6348 6.79L1.85625 7.11479L1.84148 7.45433L1.64957 7.55767L1.6348 7.69054L1.73814 7.73483L1.90054 7.64625L2.22532 7.5872L2.69773 6.86382L2.80107 6.90811L2.77154 7.15908L3.02251 7.04097L3.30301 6.80477L2.93394 6.58332L2.78631 6.61285L2.72726 6.4357L2.34342 6.49475L1.87101 6.25854L1.81196 5.71232L1.9153 5.5204L1.90054 5.25467L1.76767 4.69368L1.45765 4.33937L1.05905 3.89648L1.10334 3.73409L1.13287 3.33549L1.20668 3.01071L1.17715 2.81879L1.26573 2.5383Z" fill="#CFCDC7" stroke="white" stroke-width="0.0520918"/>
</svg>
