<svg width="82" height="50" viewBox="0 0 82 50" fill="none" xmlns="http://www.w3.org/2000/svg">
<path d="M11.6804 21.7527L11.7985 21.6437H12.0983L12.389 21.4984L12.7615 21.3984L13.0431 21.2167L13.0341 20.8988L12.9341 20.7988L12.9432 20.6353L12.7979 20.4809L12.6707 20.4627L12.5526 20.3718L12.5798 20.1447" stroke="#CFCDC7" stroke-width="0.0520918" stroke-linecap="round" stroke-linejoin="round"/>
<path d="M13.0613 21.218L13.4883 21.2362L13.7699 21.4452L14.1696 21.0999L14.2241 20.9092L14.3877 20.7638H14.6966" stroke="#CFCDC7" stroke-width="0.0520918" stroke-linecap="round" stroke-linejoin="round"/>
<path d="M2.77501 7.15594L2.55305 7.41369L2.50854 8.34821L2.95355 8.63746L4.31083 8.74871L4.88934 8.48171L5.28985 8.85997L5.69036 8.83771L5.86836 9.26047L6.46912 9.23822L7.29239 8.34821L8.29366 8.74871L8.80542 8.72646L9.16143 8.48171L9.71769 8.30371L10.8525 7.34694L11.876 7.50269L12.41 7.9032L12.7437 7.92545L12.766 8.19245L13.1581 8.7949L13.5225 9.66098L14.012 10.0615L14.7908 10.373L14.813 10.5955L15.8143 10.284L16.2593 10.3952L16.8156 10.8625L16.9713 10.818L17.2828 10.0615L17.2606 9.41623L17.8391 8.83771L18.0171 8.81546L18.3064 9.12697L19.3744 9.83898L20.8429 10.4175L21.0877 10.818L21.3324 10.8625L21.7107 11.9973L21.9109 12.3755H22.2892L22.5117 12.954L22.7564 12.7093H23.0235L23.068 12.3533H23.3572L23.9135 12.4868L23.9357 12.2643L24.2917 12.1085L24.6227 12.232L25.1595 12.7093L25.0927 12.9095L24.6922 12.9763L24.937 13.6883L24.7812 13.7328L25.204 14.2001L25.0482 14.4671L25.0927 14.8453H25.2262L25.293 15.6909L25.2262 16.2694L25.6045 16.4029L25.471 16.6031L25.5378 17.1816L26.5168 17.6266L26.7838 17.3596L26.984 17.5376L27.1843 17.4709L27.8295 17.8491C27.8295 17.8491 27.785 17.4041 27.8963 17.4041C28.0076 17.4041 28.4303 17.4709 28.4303 17.4709L28.9643 18.0494L29.3203 18.0717L29.7431 18.6724L30.1213 18.7614L30.2326 19.3177L30.5219 19.6959L30.5441 19.8739L31.1004 20.1854L32.2796 20.4079V20.675L32.6579 21.0087L32.5466 21.387L31.8791 22.4995L31.7901 22.8777L31.9459 22.9445L31.9236 23.6565L32.0126 23.9458L31.8791 24.591L31.4786 25.036L31.3533 25.8675" stroke="#CFCDC7" stroke-width="0.0520918" stroke-linecap="round" stroke-linejoin="round"/>
<path d="M65.1066 6.78038L64.2577 7.20846V7.51488L63.9853 7.71916L64.1556 8.05963L64.7344 8.36605L65.0748 8.84271L64.5301 9.14914L64.3599 9.65984L64.0534 10.0684L64.462 10.5451L64.496 11.1239L64.6663 11.3962L64.5982 11.7027L64.8365 11.8048L65.211 11.5665L65.3132 11.975L64.6663 12.2474L64.2577 12.7241L63.5087 13.1326L63.4406 13.4731L63.6108 13.6774L63.1682 14.869L63.032 15.5159L62.8618 15.584L62.998 15.9926L62.6235 16.0947L62.7256 16.5033L62.2149 16.6735V17.6268L62.0106 17.8311L61.6021 17.9673L61.4318 19.0228L61.9425 20.1463L61.8404 20.3506L62.0447 20.623L62.1809 21.2018L62.7256 21.5763L62.6575 22.087L62.4873 22.6317L62.6235 23.3467L62.1468 24.6745L61.8404 24.7767L61.8063 25.0491L61.2956 25.015L60.819 25.696L60.1721 25.3214L59.5592 26.2407L59.3209 27.0578L59.0145 27.4664L58.9464 28.0452L58.7081 28.4197L59.0145 29.1007L58.0612 29.4071L57.6186 29.1687L57.4824 28.8964L57.176 28.5559L57.3121 28.1814L57.1079 27.4324L56.8355 27.194L57.0738 26.8536V26.2748L56.9717 25.9683L57.0738 25.5257L56.8695 24.5384L56.6993 24.0277L56.4269 23.585L57.3121 22.4955L57.3462 21.3379L57.6526 20.5889L57.6186 20.2484L57.5164 20.1463L57.7207 19.8058L57.6867 19.4313L57.0398 19.2951L56.9717 19.1589L57.2781 18.8525V17.9673L57.1419 17.0821L56.8014 16.9799L56.4269 17.4906L56.2907 17.014L55.8141 16.9799L55.4396 17.3885L54.9629 17.1842L54.9289 16.8778L54.8608 16.1969L54.4862 16.0266L53.567 16.6395L53.1244 17.2864L53.0222 17.2523L53.0563 16.5373L52.7498 16.1288L52.3072 16.0947L52.0689 15.4478L51.8646 14.8009L51.9668 13.8476L52.2391 13.2348V12.7241L51.5582 11.7367L51.0815 11.4643L51.4561 10.9196L51.7284 10.0344L51.7965 9.18318L51.9668 8.63843L51.7284 8.09368L51.8987 7.78726L51.8306 7.54893L51.9668 7.10632L52.5796 7.58297L52.8179 7.20846L53.2265 6.7318L53.6691 6.66371L54.0777 6.42538L54.2139 6.62966V6.93608L54.6565 7.10632L54.9289 7.00417L55.4396 7.3106H55.8141L55.6098 6.86799L56.1205 6.62966L56.495 6.01681L56.3929 5.60825L56.8695 5.36992L57.4143 6.08491L57.7888 5.81253V5.30183L58.3676 5.74444L58.674 5.84658L59.2188 5.43802L59.4911 5.47206L59.2188 5.91467L59.6954 5.94872L59.423 6.2211L59.5252 6.66371L59.8997 6.93608L60.1721 6.56157L60.4445 6.83394L60.3423 7.10632L60.8871 7.44679L61.4999 7.51488L61.8404 6.97013L62.4873 7.14036L62.8618 7.41274L62.5894 7.8213L62.6916 8.09368L63.6449 7.78726L63.983 7.72146" stroke="#CFCDC7" stroke-width="0.0520918" stroke-linecap="round" stroke-linejoin="round"/>
<path d="M32.2814 20.4175L32.2946 20.1545L32.134 20.0857L32.2487 19.3516L32.3864 18.9158L32.6846 18.7552L32.891 19.0075L33.4186 19.0305L33.8315 17.7917L33.8086 17.5394L34.1068 17.1265L33.9921 16.6218L34.3362 15.8419L34.6344 15.5208L35.1391 15.3602L35.6208 15.0849L35.4373 14.5114H35.8043L36.2172 15.0849L36.2402 15.1537L36.6072 15.1996L37.4559 15.9566L37.823 15.6813L38.0982 15.819L38.2817 15.3602L38.58 15.2455L39.2681 15.5896L39.4746 15.796L39.8646 15.6813L40.5298 15.9107L42.1126 16.0484L42.5714 15.6355L43.076 15.6584L42.9843 15.2226L43.2137 15.039L43.7872 15.3373L44.0166 15.7043H44.4753L44.6359 15.1996L44.6818 14.6032L45.2553 13.4333L45.8288 13.1351L45.9893 12.7681L46.4711 12.6992L46.9069 12.424L47.1822 12.3781L47.3427 11.9652L47.8703 11.644L48.1686 11.7817H49.2008L49.3384 11.9422L50.0266 11.9193L50.646 11.667H51.0589L51.0862 11.457" stroke="#CFCDC7" stroke-width="0.0520918" stroke-linecap="round" stroke-linejoin="round"/>
<path d="M48.1658 11.7808L48.4667 12.2405L48.5125 13.2039L48.352 13.4104L48.3978 13.6627L48.8566 14.0068L48.8796 14.3738L49.2007 14.7408L49.4301 15.5208L49.6595 15.8649L49.6136 16.5989L49.2695 17.1953L49.3154 18.4111L48.9713 18.824L49.086 19.4893L49.4301 20.0169L49.6366 20.1545L49.843 21.3244L49.7742 22.1731L50.1642 23.6642L50.0724 24.1918L49.7283 25.2241L49.3842 25.8205L49.3154 27.0363L48.9254 27.0821L48.8566 26.8986L49.0401 26.1875L49.0631 25.7517L48.9713 25.3388L49.2695 24.5588L48.9484 24.3294L48.3749 24.1918L47.8702 24.7194L47.6867 25.1782L47.5491 25.4764V25.637L47.8473 25.6599L47.8244 25.8664L47.7555 26.0269L47.6638 26.7839L47.8244 27.0133L48.0996 27.151V27.7932L47.7097 28.1144L47.6179 28.5502L47.3885 28.7796L47.2509 29.4449L46.9068 29.789L46.7692 30.4542C46.7692 30.4542 46.7921 30.7983 46.7692 30.89C46.7462 30.9818 46.1957 32.4729 46.1957 32.4729L45.9663 32.8169L45.9434 33.5281L46.4021 33.9639L46.3563 34.1704L45.9892 34.2162L45.8975 34.6062H45.5534L45.3469 34.8356V35.0879L45.0028 34.9503L44.934 34.5603L44.0623 34.7668L43.8329 35.1567L43.1677 35.5926L43.1906 35.8449L42.9383 36.0743L42.783 36.4965" stroke="#CFCDC7" stroke-width="0.0520918" stroke-linecap="round" stroke-linejoin="round"/>
<path d="M48.552 42.681L48.2604 41.877L48.2833 41.5788L48.2145 41.3036V40.9595L47.7557 40.8907V40.2942L47.8933 39.9731L47.6869 39.7437L47.664 39.5372H47.5263L47.4346 39.2849L47.8933 38.8261L47.6181 38.4132L47.5034 37.8856L47.8245 37.5645L47.9163 37.3351L47.9392 35.9817L47.8016 35.867V35.7064L47.9392 35.6376L47.8016 35.11L48.4668 34.8806L48.9256 34.8347V34.3759L49.2697 34.2153L49.7285 34.1465L49.912 33.9171L50.7608 33.8712V33.6418L51.2425 33.573L51.5636 33.963L51.3801 34.2153L51.7701 34.3071L51.9077 34.8347L52.6876 35.6376L52.7565 36.1422L52.917 36.3946L53.1694 36.4175L53.2611 36.6928L53.5593 36.7616L53.5823 37.0369L53.7926 37.2519" stroke="#CFCDC7" stroke-width="0.0520918" stroke-linecap="round" stroke-linejoin="round"/>
<path d="M51.7769 34.31L51.8847 33.5739L52.2059 33.0463L52.1829 31.9453L52.0224 31.5323L51.7012 31.2341L51.1277 30.3395L51.2195 29.766L51.036 29.3072L51.2195 28.5732L51.5177 28.4585L51.4948 27.9997L51.793 27.7474L51.6553 27.2427L51.8389 26.8298L51.8618 26.3022L51.7242 26.1187L51.77 25.5911L51.1048 24.6047L50.9901 23.9853L51.1966 23.2054L51.036 22.586L50.8983 22.2878L50.8754 21.3473L50.6919 21.0032L50.9442 20.4527L51.1507 20.3151L51.3113 19.6498L51.2195 19.4434L51.3801 19.214L51.3113 18.8011L51.6095 18.2505L51.7471 17.9294L52.1141 17.7459L52.2747 17.3788L52.16 17.1494L51.77 17.0348L52.1141 16.4842L52.3038 16.0913" stroke="#CFCDC7" stroke-width="0.0520918" stroke-linecap="round" stroke-linejoin="round"/>
<path d="M59.0127 29.1001L59.1989 29.3906L59.3679 30.0454L59.3468 30.5734L59.1567 30.848L59.4313 31.0381L59.4735 31.6296L59.8748 32.0098L59.8446 32.526" stroke="#CFCDC7" stroke-width="0.0520918" stroke-linecap="round" stroke-linejoin="round"/>
<path d="M61.8008 25.0447L61.8604 25.314L61.2901 25.9688L61.0789 26.6447L61.2056 26.6869L61.8815 26.3912L62.1138 26.1589L62.494 26.0533L62.5363 26.4546L62.3462 26.5602L62.2828 27.0038L62.4518 27.7008L62.5997 27.8064L62.5785 28.3556L62.1983 28.5668L61.9871 28.6302V28.778L62.135 29.0526L62.0716 29.3272L62.3251 29.7074L62.4518 29.3272L62.9799 29.3061L63.1488 29.0949L63.867 29.0738L64.3739 28.6091L64.6063 28.3345L64.902 28.3134L65.2822 28.0599L65.599 28.0176L66.0003 28.3556L66.0637 28.6724L66.3805 28.947L66.4439 29.3483L66.3172 29.4751L66.3383 30.1721L66.6763 30.5734L66.6237 31.0216" stroke="#CFCDC7" stroke-width="0.0520918" stroke-linecap="round" stroke-linejoin="round"/>
<path fill-rule="evenodd" clip-rule="evenodd" d="M45.2952 11.5235L45.0436 11.3525L44.5172 11.2746L44.0755 11.3509L43.5836 11.3057L43.0857 11.6791L43.2724 11.8659V12.1148L43.7392 12.2704L44.1127 12.1148L44.6106 12.2082L44.7973 12.0837L44.9218 11.7725L45.1934 11.7065L45.2952 11.5235Z" stroke="#CFCDC7" stroke-width="0.0520918" stroke-linecap="round" stroke-linejoin="round"/>
<path fill-rule="evenodd" clip-rule="evenodd" d="M42.736 11.9144L42.2616 12.3189L42.1831 12.8006L42.3861 13.0428L42.6504 13.0112L42.9304 12.4511L42.8989 12.116L42.736 11.9144Z" stroke="#CFCDC7" stroke-width="0.0520918" stroke-linecap="round" stroke-linejoin="round"/>
<path fill-rule="evenodd" clip-rule="evenodd" d="M47.1001 12.8615L48.0341 13.0338L48.0648 13.4217L47.8469 13.9196L47.4735 14.2308L46.9133 14.0441L47.0067 13.515L46.9981 13.1574L47.1001 12.8615Z" stroke="#CFCDC7" stroke-width="0.0520918" stroke-linecap="round" stroke-linejoin="round"/>
<path fill-rule="evenodd" clip-rule="evenodd" d="M62.6914 10.4044L62.3802 10.4355L62.2869 10.6844L62.3802 10.9957L62.069 11.5558L61.7578 11.9293L61.4777 12.5205L61.1976 12.7073L60.9176 13.2052H60.6997L60.4819 13.5786L60.2952 13.672L60.3574 13.7653L60.8242 14.0454L61.2288 14.4189L62.2557 13.921L62.3802 13.423L62.7848 13.1118L62.7225 12.9251L63.1271 12.2093L63.2205 11.6492L63.096 11.3691V11.0268L62.6914 10.4044Z" stroke="#CFCDC7" stroke-width="0.0520918" stroke-linecap="round" stroke-linejoin="round"/>
<path fill-rule="evenodd" clip-rule="evenodd" d="M48.2651 41.867L48.2815 42.5048L48.4123 42.5866L48.4941 42.4394L48.5104 42.2922L48.2651 41.867Z" stroke="#CFCDC7" stroke-width="0.0520918" stroke-linecap="round" stroke-linejoin="round"/>
<path fill-rule="evenodd" clip-rule="evenodd" d="M48.6623 43.2682L48.1342 43.2745L48.1179 43.5361L48.0034 43.6833L48.0197 43.8632L47.9053 44.0594L47.9543 44.4028L48.1669 44.5336L48.216 44.4191L48.4776 44.6154L48.6902 45.0242V45.2858L49.0009 45.5965H49.2953L49.5569 45.8582H49.7858L49.7531 45.6292L49.2953 45.1877L48.949 44.8366L48.6888 44.2821L48.6262 43.7323L48.6623 43.2682Z" stroke="#CFCDC7" stroke-width="0.0520918" stroke-linecap="round" stroke-linejoin="round"/>
<path fill-rule="evenodd" clip-rule="evenodd" d="M49.3771 42.2105L49.328 42.4885L49.0991 42.4067L48.8375 42.5539L48.8211 42.7828L48.5595 42.6847L48.3796 42.9136L48.167 42.979V43.1099L48.6691 43.0988L48.7836 42.9497L48.9917 42.7352L49.1318 42.6683L49.5243 42.5866L49.7369 42.4721V42.3249L49.3771 42.2105Z" stroke="#CFCDC7" stroke-width="0.0520918" stroke-linecap="round" stroke-linejoin="round"/>
<path d="M8.26904 11.9689L8.56318 12.1813L8.71024 12.1977L8.79195 11.9525L8.66122 11.5277L8.71024 11.397L8.85731 11.7238L8.97169 12.0833L8.80829 12.3447L8.53049 12.4264L8.26904 11.9689Z" stroke="#CFCDC7" stroke-width="0.0520918" stroke-linecap="round" stroke-linejoin="round"/>
<path d="M64.7609 38.0337L65.8626 38.254L66.083 38.4523L66.127 38.6727L65.9287 39.1134L65.3118 39.51L65.0033 39.5981L64.6728 40.0388H64.122H63.7914L63.6152 39.8846L63.4609 39.9286L63.3067 39.6642L63.3508 39.532L63.1965 39.3337L63.4609 39.2456L63.6152 39.3117L63.7694 39.0913L63.9457 39.2456L64.1881 39.0913H64.3643L64.4965 38.9812L64.5406 38.3201L64.7609 38.0337Z" fill="#CFCDC7" stroke="#CFCDC7" stroke-width="0.0520918" stroke-linecap="round" stroke-linejoin="round"/>
<path d="M65.598 39.6201L65.2675 39.7303L65.2014 39.8405L64.6947 40.1269L64.5845 40.3252L64.0997 40.4354L63.8794 40.8761L63.9896 41.0744L64.3641 41.1846L64.3862 41.0083L64.5625 40.9642L64.6286 40.788L64.7828 40.7659L65.3997 40.2151L65.598 39.6201Z" fill="#CFCDC7" stroke="#CFCDC7" stroke-width="0.0520918" stroke-linecap="round" stroke-linejoin="round"/>
<path d="M67.2067 38.6727L66.9864 39.3557H66.766L66.4796 39.532L65.8186 40.3473L65.8626 40.5015H65.7304L65.5321 40.7439L65.5542 40.832H65.422L65.0914 41.2066L65.2236 41.4269L64.6948 41.6913L64.5186 41.8676L64.4965 42.088L64.7609 42.2642L64.4304 42.5066L64.5406 42.5947L64.8711 42.5507L64.827 42.6608L65.0253 42.7049L64.7389 43.2337L64.783 43.4981L65.7084 43.388L65.9948 43.6083L66.0609 43.8727L66.3253 43.7625L66.6999 44.2032L66.9203 44.2693L66.8542 44.71L67.383 44.9524L67.6033 44.8422L67.9338 45.2388H68.4626L69.0796 45.6575L69.344 45.988L69.2779 46.2304L69.5203 46.2744L69.5423 46.7592L70.005 46.5829L70.2915 46.671L70.7101 46.7371L71.0406 46.9795H71.4372L71.6355 47.1998L71.8999 47.2219L72.1644 47.5965L72.5389 47.5083L72.7813 47.5965L73.0237 47.8829L73.4203 47.927L73.5305 47.8168L73.4644 47.7287L73.5745 47.7507L73.7067 47.6846L73.6847 47.4863L73.905 47.4422L74.0593 47.2219L74.4559 47.1558L74.4118 46.9795L74.4779 46.9134L74.3898 46.5609L74.5 46.3185L74.4779 46.0761L74.6542 46.032L74.7203 45.7015H74.9627L75.0949 45.5253V45.3931L75.3373 45.1066L75.6457 45.2609L75.8661 45.327L75.9542 45.4812L76.0644 45.2829L75.7559 44.9524L75.8661 44.688L75.5576 44.2253L75.6457 44.049L75.5356 43.8507V43.7185L75.0949 43.1015L74.8745 43.0354L74.8084 42.749L74.1254 42.1541L73.861 42.0219L73.7508 41.8456L73.7288 41.4269L73.4423 41.2947L73.3983 41.1185L73.2 40.8761L73.0898 40.832L72.9796 40.0388L72.6271 39.4439L72.3406 39.0032L71.8118 38.6727L70.9745 38.6507L70.4677 38.871L69.8949 38.9591L69.1457 38.9812L68.3745 38.8049L67.7576 38.6066L67.2067 38.6727Z" fill="#CFCDC7" stroke="#F5F5F5" stroke-width="0.520918" stroke-linecap="round" stroke-linejoin="round"/>
<path d="M5.47534 2.26938L6.2312 2.09495L7.07427 2.15309L7.08881 2.29845L6.79809 2.57463L6.37656 2.64731L6.0277 2.45834L5.47534 2.4002V2.26938Z" fill="#CFCDC7" stroke="#CFCDC7" stroke-width="0.0520918" stroke-linecap="round" stroke-linejoin="round"/>
<path d="M50.8487 41.9992L51.1594 41.8684L51.3229 41.7212L51.5682 41.7539L51.8626 42.0156L51.9116 42.2445L51.7808 42.2936L51.6663 42.2118L51.6009 42.1137L51.4864 42.2118L51.5846 42.3099H51.6827L51.699 42.4244H51.5355L51.5519 42.5225L51.3556 42.7351L51.4374 42.7514L51.6009 42.5879L51.7317 42.6206L51.8626 42.5062L51.8298 42.3753L51.977 42.1954L52.1569 42.2118V42.3099L52.0424 42.4734L52.0588 42.637L51.8298 42.7024L51.7971 42.915L51.5028 43.1766L51.2575 43.1603L51.1267 42.9804L50.9959 42.8823H50.816L50.7996 43.0458L50.9632 43.1766H51.1267L51.2739 43.3238L51.1921 43.471L51.0286 43.4873L50.9632 43.6999L50.865 43.7326L50.538 43.5691H50.4562L50.1782 43.4219L50.2763 42.8986L50.3908 42.5552L50.4889 42.3263L50.6688 42.2445L50.8487 41.9992Z" fill="#CFCDC7" stroke="#CFCDC7" stroke-width="0.0520918" stroke-linecap="round" stroke-linejoin="round"/>
<path d="M1.26573 2.53829L1.70862 2.28732L2.09245 2.30208L2.24008 2.22827L2.49105 2.30208L4.21831 2.47924L4.48404 2.22827L4.77929 2.28732L5.05979 2.55305V2.74497H5.23694L6.77228 4.85606L6.72799 5.09227L6.31463 5.4761L6.49179 5.52039L6.37369 5.80088L6.5656 6.00756L6.78705 6.05185L7.03801 6.00756L7.79092 5.34324L7.82045 5.16608L8.14523 5.0775L8.45525 4.70843L8.80956 4.59033L9.00148 4.70843V5.0775L9.25245 5.31371L9.65104 5.06274L9.56247 4.94464H9.16387L9.14911 4.63462L9.40007 4.47223L9.63628 4.38365L9.85772 4.3246L9.93154 4.05887L10.6844 3.83742L11.024 3.89647L11.275 4.11792L11.1716 4.47223L11.1273 4.90035L11.2454 5.0775L11.5407 4.87082L11.6293 5.01845L11.8359 5.03322L11.9098 4.79701L12.3526 4.64938L12.3379 4.30983H12.4855L12.6922 3.97029L12.8103 4.28031L13.4746 4.39841L13.7256 4.59033L13.8142 4.8413L14.0799 5.01845L14.3013 4.85606L14.2866 4.60509L14.3899 4.50175L14.6261 4.87082L14.8623 5.09227L15.0543 5.38752L15.32 5.40229L15.4824 5.29895L15.571 5.41705L16.2058 5.60897L16.5748 5.43181L17.2834 5.37276L17.5935 5.49086L17.9182 5.78612L18.1249 5.84517L18.4202 6.12567L18.6564 6.08138L18.6859 5.85994L18.8483 5.7566L18.8778 5.81565L18.7893 5.9928L18.8631 6.15519L19.2174 6.2733L19.3798 6.24377L20.1032 6.47998L21.0037 7.04097L21.358 6.95239L22.1404 7.23288H22.3619L24.3696 7.80863L24.5911 8.00055L25.0044 8.03008L25.093 7.98579L25.1816 8.00055L25.2406 8.22199L25.5654 8.44344L25.7869 8.38439L26.0231 8.08913L26.1412 8.13342L26.0674 8.31057L26.1855 8.4582L26.5102 8.50249L26.6136 8.31057H26.7022L27.1155 8.56154L27.8094 8.69441L28.7247 8.63535L29.7876 8.19247L30.2157 8.17771L30.6143 8.01531V7.91197L30.7619 7.8234L30.9686 7.91197L32.1349 7.69053L32.5778 7.86769L33.3307 7.77911L34.807 7.74958L35.6632 7.67577L36.0766 7.4248L36.5785 7.41004L36.8295 7.24765L37.0952 6.68666H37.7153L38.04 6.53903L38.232 6.14043L38.5863 5.93375L39.0439 5.54992L39.472 5.43181L39.6935 5.22513V5.00369L40.1807 4.67891L40.3283 4.3246L40.9188 3.66027L41.1993 3.54217L41.3026 3.36501L41.8784 2.8926L42.1736 2.80402L43.7533 1.56394L43.8714 1.37202L44.0338 1.41631L44.329 1.40155L44.7571 1.23916L46.4106 0.338623L48.1378 0.176231L49.3927 0.958663L49.6289 0.973425L51.2085 1.51965L51.9319 1.56394L52.9063 1.75586L53.4968 2.05112L53.9544 2.47924L54.3087 2.55305L54.9731 2.92213L55.7998 2.98118C55.7998 2.98118 56.1688 3.20262 56.2279 3.20262C56.287 3.20262 56.4641 3.20262 56.4641 3.20262L56.7889 3.4093L57.6747 3.32072L57.9109 3.37977L58.1471 3.8079L58.4128 3.95553L58.8409 4.38365L59.4905 4.4427L60.0515 4.61985L60.332 4.82653L60.8044 4.8413L61.5868 5.18084L62.325 5.5942L62.4135 5.80088L62.6498 5.88946L63.4912 6.00756L64.9675 6.55379L65.248 6.96715L65.4842 7.17383L66.0157 7.60195L66.8572 7.73482L67.2705 8.29581L67.7134 8.38439L67.8758 8.48773L68.3039 9.22587L70.0755 10.1116L71.4337 10.8645L71.7732 11.1746L71.8618 11.4551L72.9247 12.4589L73.3971 13.1233L73.6776 13.8319L73.9286 13.9648L74.3715 14.3929L74.5043 14.6734L75.2277 15.2786L75.2868 15.692L75.8478 16.6664L76.3054 16.8878L76.6892 17.3454L77.6341 17.4045L77.7965 17.6259L78.0474 17.5374L78.446 17.9507L78.8151 18.0245L79.1546 18.2165L79.6566 18.7184L80.2471 18.9103L80.3504 19.4418L80.9409 20.0175L80.8819 20.4014L81 21.0952L80.8376 21.2133L80.8524 21.3757C80.8524 21.3757 80.9409 21.4938 80.9262 21.5529C80.9114 21.6119 80.6309 22.1729 80.5719 22.1877C80.5128 22.2024 80.2619 22.3353 80.2619 22.3353V22.6896L80.0404 22.7782L79.9814 23.103L79.6123 23.3392L79.4942 23.6344L79.2137 23.7968L78.4313 24.4021L77.8112 24.594L77.3683 24.9336L76.2021 25.3765L76.1578 25.8046L75.9363 26.1294L75.1096 26.7937L74.6963 27.9747L74.7996 28.1962L74.6667 28.2257L74.4305 28.0633L72.8657 28.8457L72.7771 28.6981L71.0941 28.0928L70.6217 28.1666L70.1345 27.8714L69.7802 27.8566L68.673 28.27L68.3482 28.6095L68.2892 29.0081L68.5106 29.141L68.673 29.6429L68.6878 29.9382L68.6287 29.9677L68.5254 29.761L68.3039 29.8496L68.4368 30.0563L68.3777 30.4254L66.621 31.0306H66.06L65.4842 31.2373L64.5394 32.2707L63.3731 32.5807L61.6311 32.6693L61.203 32.5512L59.9334 32.5069L59.4167 32.6398L58.7966 32.9498L58.5309 33.2008L58.2947 33.7322L57.778 33.9684L57.5861 34.1161L56.9808 34.4409L56.656 34.9723L55.5193 35.6366L55.4602 35.8286L54.4564 36.7881L53.3196 37.6001L52.9063 38.1906L52.8915 38.4268L53.1277 38.9731L53.0686 39.3126L53.2606 39.9179L53.1129 40.7003L52.8915 40.966L52.36 41.217H52.1829L52.1681 41.1137L51.8729 41.0989L51.6219 41.3794L51.1052 41.6451L50.7361 41.6599L50.559 41.8813L50.7656 42.0437L50.6918 42.1471L50.4851 42.0142L50.2637 42.1028H49.9832L49.8503 42.6047L49.6141 42.6933L49.8946 42.7819V42.9295L49.7618 43.3429L49.4517 43.3281L49.5108 42.8409L49.3927 42.7819L49.3336 42.7671L49.0697 42.8615L48.8925 43.0691L48.8243 43.2463L48.8004 43.7204L48.8908 44.2877L49.1122 44.7306L49.5108 45.1292L49.8208 45.4244L49.9389 45.7197L49.9242 45.8378L50.2637 45.9116L50.1013 45.7345L49.9242 45.1587L50.1751 44.9815L50.0127 44.5977L50.0423 44.2286L50.1013 44.081L50.057 43.8891L50.1751 43.7415L50.4261 43.7562L50.5442 44.2582L50.559 45.0111L50.7656 45.8673L50.9428 45.9559L51.1938 46.5907L51.3709 46.5759L51.4004 46.694L51.3414 46.7826L51.5776 46.8564V47.0188L51.3266 46.9745L51.0757 47.1812L51.0166 47.506L50.6771 47.8308L50.4999 48.1408L50.1899 48.7756L49.3632 49.1004C49.3632 49.1004 49.0236 49.3661 48.9498 49.3809C48.876 49.3956 48.4331 49.4842 48.4331 49.4842L47.7245 49.7352L46.8978 49.8238L45.8791 49.7647L44.4767 49.7204L43.5171 49.6023L42.0113 49.0856L41.9522 48.7756L41.8193 48.5542L41.8636 48.067L42.1441 47.5946L42.6165 47.5798L42.8675 47.3584L43.0889 47.4027L43.4285 47.1812L43.8271 46.9302L43.9304 46.3988L44.0485 46.2807L44.1223 46.3102L44.3586 46.1183L44.8162 46.074L44.9048 45.8673L45.141 45.823L45.4658 45.4392H45.9382L46.3663 45.513L46.6616 45.5721L46.9125 45.3211L47.1045 44.7601L47.1192 44.1548L46.9125 43.8891L46.5139 43.5791H46.1153L46.0563 43.3724L46.4992 43.3429L46.6468 42.7966L46.7944 42.3095L47.134 41.8223L46.9716 41.0841L46.632 40.2427L46.1744 39.6226L45.6872 38.8845L45.1853 38.2792L44.3143 37.5558L43.7385 37.0834L42.8527 36.6848L42.6165 36.1533L42.336 35.9171L41.8046 35.0314L41.775 34.6032L41.5831 34.4704L41.4798 34.4851L40.9631 33.7765L39.7525 32.6988L38.4091 31.5621L37.5824 31.0306L36.9181 30.4401L36.5047 30.2777L36.3866 30.2482L36.3718 30.0268H36.2833L36.2537 29.7758L35.3237 28.8605L34.9989 28.6981L34.7627 28.329L34.2755 28.019H33.9507L33.9064 27.8419L33.6259 27.709L33.0207 27.0742L33.1092 26.9856L32.5335 26.5132L31.7363 25.9817L31.2344 25.8489C31.2344 25.8489 30.6881 25.3912 30.57 25.3469C30.4519 25.3026 29.33 24.7121 29.33 24.7121L28.9609 24.6974L26.9236 23.9445L26.1412 23.7673L25.5507 23.7378L25.2111 23.4868L25.093 23.472L25.0044 23.1325L24.7239 23.0587L24.3696 22.8668L24.2515 22.4977L23.971 22.3058L23.3215 22.1286C23.3215 22.1286 22.0371 21.8924 21.9633 21.8334C21.8895 21.7743 20.9742 21.5381 20.9742 21.5381L20.0293 21.361L19.4979 21.3462L17.6378 21.3905L16.2648 21.4938L14.8476 21.8334L13.8142 22.04L12.766 21.9958L11.8212 21.7891L11.6145 21.7595L11.3045 21.7743L10.7583 21.6562L10.3892 21.42L10.3154 21.2576L9.90201 20.8885L9.96106 20.7409L9.93154 20.6966L10.0054 20.5342L9.26721 19.7518L8.80956 19.4861V19.3532L8.17476 18.6889L8.08618 18.2607L7.74663 17.9507L6.97896 17.6702L6.41797 17.1978L6.40321 16.873V16.5187L6.59513 16.2087L6.49179 15.7511L5.87175 15.2786L4.95645 14.3043L4.58738 14.0533L4.57262 13.9205L4.15925 13.64L4.04115 13.3004L3.95257 13.138V12.8723L3.52445 12.2227L3.28825 11.7503L2.90441 11.4994L2.69773 11.0565L2.26961 10.6431C2.26961 10.6431 2.00388 9.90496 1.9153 9.87544C1.82672 9.84591 1.5167 8.29581 1.5167 8.29581L1.41336 8.11866L1.44289 7.9415L1.14763 7.72006L1.10334 7.49861L1 7.3067L1.02953 6.99668L1.13287 6.80476L1.33955 6.45045L1.44289 6.46521V6.65713L1.6348 6.79L1.85625 7.11478L1.84148 7.45433L1.64957 7.55767L1.6348 7.69053L1.73814 7.73482L1.90054 7.64624L2.22532 7.58719L2.69773 6.86381L2.80107 6.9081L2.77154 7.15907L3.02251 7.04097L3.30301 6.80476L2.93394 6.58332L2.78631 6.61284L2.72726 6.43569L2.34342 6.49474L1.87101 6.25853L1.81196 5.71231L1.9153 5.52039L1.90054 5.25466L1.76767 4.69367L1.45765 4.33936L1.05905 3.89647L1.10334 3.73408L1.13287 3.33548L1.20668 3.0107L1.17715 2.81878L1.26573 2.53829Z" fill="#CFCDC7" stroke="white" stroke-width="0.0520918"/>
<path d="M52.7272 37.8126L52.9877 38.073L53.6649 37.5782L54.6025 36.6666L54.7067 36.4582L55.8527 35.755L56.1913 35.234L56.582 35.0257L56.9206 34.7652L57.4676 34.5308L57.702 33.9838L58.301 33.5411L59.0824 33.3848V32.7076L58.6917 32.4732L58.5875 31.9262L58.301 31.6918L58.4833 31.3792V30.5979L58.1187 29.8946L57.2592 30.2072L56.6601 29.7123L56.2955 29.3216L56.4778 29.0612L56.2955 28.3579L55.9569 27.9933L56.2955 27.6547L56.1392 26.8473V26.1961L55.4881 24.3729L56.4778 23.3571V22.2892L56.8425 21.2995L56.6601 21.013L56.8425 20.6483V20.2055L56.2955 20.1014L56.1392 19.9451L56.4778 19.7628V18.6688L56.2955 17.8875L55.9569 17.8093L55.6704 18.3302L55.4881 17.8093H54.9672L54.6286 18.1219L54.1597 17.8875L54.0816 17.0019L53.6388 16.8456L52.8053 17.4186L52.2063 18.1219V18.0177V17.4186L52.024 16.8456H51.503L50.9821 17.8093L51.3728 18.1219V18.4865L50.7738 18.6688L50.6175 19.3981V19.7628L50.4091 20.3358L50.3049 21.013L50.1226 21.2995L49.8101 21.7162L50.1226 22.1069L50.0184 23.0706L50.4091 23.9301L50.1226 24.7636L50.3049 25.3887L50.9821 26.3784V27.264L50.7738 27.9933L50.9821 28.4621L50.6175 28.6705V29.1653L50.4091 29.3216L50.1226 29.9988L50.4091 30.3895L50.3049 31.1188L51.1384 32.2648L51.3728 32.7076V33.7755L50.9821 34.3224V35.208L51.1384 35.7029L51.8677 36.4582L51.9719 37.0833H52.4407V37.5782H52.7272V37.8126Z" fill="#4B4D4C" stroke="#4B4D4C" stroke-width="0.0520918"/>
</svg>
